<svg width="124" height="58" viewBox="0 0 124 58" fill="none" xmlns="http://www.w3.org/2000/svg">
<path d="M17.0545 4.9057C15.9219 7.60738 12.1246 16.6722 8.62715 25.0972C5.09635 33.4866 1.73209 41.6272 1.09921 43.1558L0 45.9286L5.22959 45.8219L10.4592 45.7153L12.3245 40.9163L14.1898 36.1172L24.0161 36.0106L33.8424 35.9395L35.7744 40.9163L37.7063 45.893H42.9692C45.9005 45.893 48.2654 45.8219 48.2654 45.7153C48.2654 45.5376 46.6999 41.7694 37.5398 19.9427C35.5412 15.1436 32.8431 8.70938 31.5441 5.61667L29.2124 0.0355658H24.1494H19.0863L17.0545 4.9057ZM27.447 19.4095C29.0459 23.4975 30.4449 27.0879 30.5115 27.3012C30.6447 27.6567 29.2457 27.7633 24.1494 27.7633C20.5519 27.7633 17.6207 27.6922 17.6207 27.5856C17.6207 27.479 18.8865 24.1729 20.4187 20.2271C21.9843 16.2456 23.4166 12.5131 23.6164 11.9443C24.0828 10.5934 23.8496 10.1669 27.447 19.4095Z" fill="white"/>
<path d="M52.5956 22.9643V45.8931H57.592H62.5884V22.9643V0.0355966H57.592H52.5956V22.9643Z" fill="white"/>
<path d="M75.4792 3.87482C76.5451 5.97218 81.2417 15.1792 85.9051 24.3152L94.399 40.9163L96.8306 40.8452L99.2622 40.7385L105.091 30.2518C108.322 24.4929 111.054 19.6228 111.254 19.445C111.42 19.2317 111.553 24.173 111.553 32.4913V45.8931H116.183C119.181 45.8931 120.913 45.7509 121.08 45.502C121.18 45.2887 121.18 34.9797 121.047 22.5733L120.78 4.33587e-05L116.65 0.106689L112.486 0.213334L104.858 13.8995C100.661 21.4357 97.1304 27.6212 96.9971 27.6567C96.8306 27.7278 93.1998 21.5068 88.9029 13.8995L81.1085 0.0355918H77.3112H73.5472L75.4792 3.87482Z" fill="white"/>
<path d="M72.5813 34.0554V45.8931H77.4112H82.241V43.4047V40.8807L78.0107 32.6335C75.6791 28.0833 73.514 23.8886 73.1809 23.3198C72.5813 22.2889 72.5813 22.5022 72.5813 34.0554Z" fill="white"/>
<path d="M3.63074 55.2778V57.9795H5.76254C8.4273 57.9795 9.42659 57.2685 9.42659 55.3489C9.42659 53.4293 8.69378 52.8605 5.9624 52.7183L3.63074 52.5761V55.2778ZM7.89435 54.1403C8.12752 54.3891 8.29406 54.8868 8.29406 55.3134C8.29406 56.4509 7.62787 56.913 6.06233 56.913H4.63002V55.3134V53.7137H6.06233C6.86176 53.7137 7.66118 53.8914 7.89435 54.1403Z" fill="white"/>
<path d="M13.9567 55.3134C13.9567 57.4463 14.0566 57.9795 14.4563 57.9795C14.856 57.9795 14.9559 57.4463 14.9559 55.3134C14.9559 53.1805 14.856 52.6472 14.4563 52.6472C14.0566 52.6472 13.9567 53.1805 13.9567 55.3134Z" fill="white"/>
<path d="M20.0855 53.1094C19.9856 53.3938 19.9523 54.5669 20.0189 55.7044L20.1188 57.8018H22.7836H25.4484L25.5483 56.2732L25.6482 54.7801H24.1493C23.0168 54.7801 22.6171 54.9223 22.6171 55.3134C22.6171 55.6689 22.9501 55.8466 23.6163 55.8466C24.2825 55.8466 24.6156 56.0243 24.6156 56.3798C24.6156 56.8064 24.1826 56.913 22.7836 56.913H20.9516V55.2778V53.607L23.2832 53.7848C25.3484 53.9625 25.6482 53.8914 25.5483 53.3938C25.415 52.6117 20.3853 52.3273 20.0855 53.1094Z" fill="white"/>
<path d="M30.2783 55.3134C30.2783 57.7307 30.3449 57.9795 30.9445 57.9795C31.5441 57.9795 31.6107 57.7307 31.6107 55.3134C31.6107 52.8961 31.5441 52.6472 30.9445 52.6472C30.3449 52.6472 30.2783 52.8961 30.2783 55.3134Z" fill="white"/>
<path d="M35.2748 53.1805C35.2748 53.5359 35.6412 53.7137 36.4406 53.7137H37.6064V55.8466C37.6064 57.5174 37.7064 57.9795 38.1061 57.9795C38.5058 57.9795 38.6057 57.5174 38.6057 55.8466V53.7137H39.7716C40.571 53.7137 40.9374 53.5359 40.9374 53.1805C40.9374 52.7539 40.4044 52.6472 38.1061 52.6472C35.8077 52.6472 35.2748 52.7539 35.2748 53.1805Z" fill="white"/>
<path d="M45.0344 55.2067C43.9685 57.2685 43.802 57.8373 44.2017 57.9439C44.4681 57.9795 44.8346 57.8017 45.0011 57.4818C45.4341 56.6997 48.432 56.6997 48.865 57.4818C49.0315 57.8017 49.398 57.9795 49.6977 57.9439C50.1308 57.8373 49.9975 57.3396 48.8983 55.2067C48.0323 53.5715 47.3328 52.6472 46.9664 52.6472C46.6 52.6472 45.9005 53.5715 45.0344 55.2067ZM47.5326 54.9579C47.899 55.811 47.8657 55.8466 46.9331 55.8466C45.8005 55.8466 45.7672 55.7755 46.3335 54.7801C46.8997 53.8559 47.0663 53.8914 47.5326 54.9579Z" fill="white"/>
<path d="M54.2611 55.3134V57.9795H56.7593C58.7579 57.9795 59.2575 57.8728 59.2575 57.4463C59.2575 57.0197 58.8245 56.913 57.4255 56.913H55.5935V54.7801C55.5935 52.8961 55.5269 52.6472 54.9273 52.6472C54.3277 52.6472 54.2611 52.8961 54.2611 55.3134Z" fill="white"/>
<path d="M69.6168 55.1001C68.8507 56.4509 68.2511 57.6596 68.2511 57.7662C68.2511 58.2283 69.2837 57.944 69.4502 57.4463C69.5835 57.0552 70.1497 56.9131 71.4155 56.9131C72.6813 56.9131 73.2475 57.0552 73.3808 57.4463C73.4807 57.7307 73.8471 57.9795 74.2135 57.9795C74.8464 57.9795 74.7464 57.7307 73.4807 55.42C72.6813 53.9981 71.8152 52.7894 71.5154 52.7183C71.149 52.6472 70.5495 53.3938 69.6168 55.1001ZM72.2482 55.5622C72.2482 55.74 71.8152 55.8466 71.249 55.8466H70.283L70.8492 54.7801L71.4155 53.7492L71.8152 54.5313C72.0484 54.9579 72.2149 55.42 72.2482 55.5622Z" fill="white"/>
<path d="M78.9768 53.0738C78.4106 53.6781 78.4439 57.0908 79.0434 57.5885C79.3432 57.8373 80.4424 57.9795 81.9747 57.9084L84.4063 57.8017L84.5062 56.2732L84.6061 54.7801H83.1072C81.9747 54.7801 81.575 54.9223 81.575 55.3134C81.575 55.6688 81.9081 55.8466 82.5742 55.8466C83.2404 55.8466 83.5735 56.0243 83.5735 56.3798C83.5735 56.8064 83.1405 56.913 81.7415 56.913H79.9095V55.2778V53.607L82.2412 53.7848C84.3063 53.9625 84.6061 53.8914 84.5062 53.3937C84.4063 52.9316 83.8733 52.7894 81.9081 52.7183C80.2426 52.6472 79.2766 52.7539 78.9768 53.0738Z" fill="white"/>
<path d="M89.2361 55.3134V57.9795H91.7343C93.7329 57.9795 94.2325 57.8728 94.2325 57.4463C94.2325 57.0197 93.7995 56.913 92.4005 56.913C90.8016 56.913 90.5685 56.8419 90.5685 56.2021C90.5685 55.6333 90.8016 55.4911 91.5677 55.4911C92.134 55.4911 92.567 55.3134 92.567 55.1356C92.567 54.9223 92.134 54.7801 91.5677 54.7801C90.9016 54.7801 90.5685 54.6024 90.5685 54.2469C90.5685 53.8203 91.0015 53.7137 92.4005 53.7137C93.7995 53.7137 94.2325 53.607 94.2325 53.1805C94.2325 52.7539 93.7329 52.6472 91.7343 52.6472H89.2361V55.3134Z" fill="white"/>
<path d="M98.8958 55.3134C98.8958 57.4463 98.9957 57.9795 99.3954 57.9795C99.7618 57.9795 99.895 57.5529 99.895 56.3798C99.895 55.4911 99.995 54.7801 100.095 54.7801C100.195 54.7801 101.094 55.4911 102.027 56.3798C102.993 57.2685 103.959 57.9795 104.192 57.9795C104.425 57.9795 104.558 57.0908 104.558 55.3134C104.558 53.1805 104.458 52.6472 104.059 52.6472C103.692 52.6472 103.559 53.0738 103.559 54.4602V56.2732L101.527 54.4602C100.428 53.4648 99.3621 52.6472 99.1955 52.6472C99.029 52.6472 98.8958 53.8559 98.8958 55.3134Z" fill="white"/>
<path d="M109.622 53.0738C109.089 53.6426 109.089 56.9841 109.622 57.5529C109.855 57.8018 110.921 57.9795 112.12 57.9795C113.852 57.9795 114.252 57.8728 114.551 57.2685C114.751 56.8775 114.818 56.3798 114.718 56.2021C114.385 55.6688 113.552 55.7755 113.552 56.3798C113.552 56.7708 113.152 56.913 112.053 56.913H110.554V55.3134V53.7137H112.053C112.886 53.7137 113.552 53.8559 113.552 54.0692C113.552 54.2469 113.852 54.4246 114.218 54.4246C114.984 54.4246 115.018 54.2825 114.551 53.3226C114.252 52.7539 113.819 52.6472 112.12 52.6472C110.921 52.6472 109.855 52.825 109.622 53.0738Z" fill="white"/>
<path d="M119.315 53.9981C120.281 55.0645 120.547 55.6333 120.547 56.6642C120.547 57.7307 120.68 57.9795 121.213 57.9795C121.746 57.9795 121.879 57.7307 121.879 56.8775C121.879 56.1665 122.279 55.2778 123.079 54.2114C124.178 52.825 124.211 52.6472 123.611 52.6472C123.212 52.6472 122.612 53.1449 122.179 53.7492L121.446 54.8868L120.58 53.7492C120.047 53.0383 119.414 52.6472 118.882 52.6472C118.115 52.6472 118.115 52.6828 119.315 53.9981Z" fill="white"/>
</svg>
