<svg width="32" height="30" viewBox="0 0 32 30" fill="none" xmlns="http://www.w3.org/2000/svg">
<ellipse cx="16" cy="15" rx="16" ry="15" fill="#6A26D3"/>
<path d="M24.6223 15.9711C25.1246 15.434 25.1246 14.5618 24.6223 14.0247L18.1938 7.14966C17.6915 6.61255 16.8759 6.61255 16.3737 7.14966C15.8714 7.68677 15.8714 8.55903 16.3737 9.09614L20.6125 13.625H8.28571C7.57455 13.625 7 14.2395 7 15C7 15.7606 7.57455 16.375 8.28571 16.375H20.6085L16.3777 20.904C15.8754 21.4411 15.8754 22.3133 16.3777 22.8504C16.8799 23.3875 17.6955 23.3875 18.1978 22.8504L24.6263 15.9754L24.6223 15.9711Z" fill="white"/>
</svg>
