<svg width="527" height="450" viewBox="0 0 527 450" fill="none" xmlns="http://www.w3.org/2000/svg">
<g clip-path="url(#clip0_13_233)">
<path d="M527 45.0426V404.957C527 429.837 505.47 450 478.905 450H48.0955C21.5296 450 0 429.837 0 404.957V45.0426C0 20.163 21.5296 0 48.0955 0H478.905C505.47 0 527 20.163 527 45.0426Z" fill="#F2F2F2"/>
<path d="M175.747 448.813L206.581 441.796L242.309 433.657C242.309 433.657 244.243 439.871 246.957 448.813H175.747Z" fill="#2F2E41"/>
<path d="M253.799 444.781C253.799 444.781 253.511 446.403 252.919 448.813H108.969C107.381 443.735 106.674 438.507 108.565 434.187C108.883 433.433 109.285 432.721 109.763 432.066C110.117 431.551 110.513 431.069 110.947 430.626C113.776 427.685 115.508 421.35 116.547 414.136C117.795 404.271 118.312 394.319 118.092 384.37C118.107 384.355 118.107 384.355 118.092 384.355C118.063 382.006 118.005 380.597 118.005 380.597C118.005 380.597 117.457 371.912 116.836 358.788C116.851 358.788 116.836 358.772 116.836 358.772C115.133 323.353 112.823 255.547 118.814 237.572C119.196 236.057 119.97 234.682 121.051 233.601C129.116 227.49 137.698 222.168 146.689 217.703C147.208 217.46 147.482 217.324 147.482 217.324L167.245 216.93L191.785 212.383L208.833 209.109C208.833 209.109 210.089 209.2 212.052 209.488C218.577 210.428 232.926 213.504 234.947 222.416C234.947 222.431 234.961 222.446 234.961 222.461C235.216 223.63 235.261 224.838 235.091 226.023C233.157 240.876 246.812 332.098 250.97 336.66C255.127 341.222 254.03 357.893 243.752 368.487C241.941 370.447 240.622 372.847 239.912 375.474C236.029 388.584 242.121 409.999 248.083 420.017C252.414 427.438 254.414 436.101 253.799 444.781Z" fill="#3F3D56"/>
<path d="M332.411 153.15L331.998 137.29L331.445 116.023L315.295 115.239L313.035 136.37L310.928 156.006L332.411 153.15Z" fill="#A0616A"/>
<path d="M167 220.301L189.655 245.828C189.655 245.828 285.648 262.105 286.29 253.559C286.932 245.012 280.609 242.536 290.974 243.296C301.339 244.055 303.83 251.787 305.409 244.392C306.989 236.998 298.298 236.817 308.361 235.769C318.423 234.72 340.401 142.48 340.401 142.48L305.343 148.417C305.343 148.417 298.529 193.015 294.256 198.715C289.983 204.414 285.696 208.504 283.06 208.751C280.424 208.997 167 220.301 167 220.301Z" fill="#3F3D56"/>
<path d="M179.992 187.299C198.373 187.299 213.274 171.655 213.274 152.357C213.274 133.058 198.373 117.414 179.992 117.414C161.611 117.414 146.711 133.058 146.711 152.357C146.711 171.655 161.611 187.299 179.992 187.299Z" fill="#A0616A"/>
<path d="M154.057 182.45L167.251 185.103C167.251 185.103 154.981 164.309 155.702 154.791C156.424 145.273 166.298 141.863 166.298 141.863C166.298 141.863 171.769 143.106 177.529 143.803C178.219 141.764 179.114 139.808 180.199 137.968C180.413 140.343 181.414 142.564 183.029 144.243C185.139 144.433 187.265 144.175 189.279 143.485C191.56 142.394 191.517 140.499 190.766 138.726C201.751 139.287 212.159 144.895 212.159 144.895C212.491 140.242 212.322 135.564 211.654 130.951C211.336 130.86 211.019 130.754 210.701 130.648C208.734 129.995 206.837 129.126 205.043 128.057C207.04 127.778 208.906 126.857 210.384 125.419C209.171 121.691 207.237 118.463 204.191 116.887C201.252 115.378 198.039 114.55 194.769 114.458C191.499 114.367 188.248 115.014 185.237 116.356C185.237 116.356 192.296 110.946 189.698 108.733C189.524 108.915 189.351 109.082 189.164 109.248C188.918 109.46 188.644 109.688 188.384 109.9C186.782 111.264 184.385 109.339 184.068 107.278C184.034 107.018 183.985 106.76 183.923 106.505C183.88 106.293 183.822 106.081 183.765 105.884C183.716 105.709 183.658 105.537 183.591 105.368C178.784 104.156 164.248 109.081 158.661 119.933C158.661 119.933 119.614 139.635 154.057 182.45Z" fill="#3F3D56"/>
<path d="M138.1 448.813H119.449L118.814 447.706L109.763 432.065L104.768 423.426L116.547 414.137L122.091 409.772L134.317 439.582L138.1 448.813Z" fill="#A0616A"/>
<path d="M146.695 217.703L193.234 330.598L212.058 209.488C210.095 209.2 208.839 209.109 208.839 209.109L200.827 192.771L154.937 195.272L147.489 217.324C147.489 217.324 147.214 217.46 146.695 217.703Z" fill="#6C63FF"/>
<path d="M207.923 448.813H171.272L194.672 379.096L206.581 441.796L207.923 448.813Z" fill="#6C63FF"/>
<path opacity="0.5" d="M430.764 234.873H325.41C308.706 234.873 295.165 249.09 295.165 266.628V306.617C295.165 324.154 308.706 338.371 325.41 338.371H430.764C447.468 338.371 461.009 324.154 461.009 306.617V266.628C461.009 249.09 447.468 234.873 430.764 234.873Z" fill="white"/>
<path d="M430.764 339.558H325.41C317.092 339.548 309.117 336.074 303.235 329.899C297.353 323.723 294.044 315.35 294.034 306.617V266.628C294.044 257.894 297.353 249.521 303.235 243.345C309.117 237.17 317.092 233.696 325.41 233.686H430.764C439.083 233.696 447.058 237.17 452.94 243.345C458.822 249.521 462.13 257.894 462.14 266.628V306.617C462.13 315.35 458.822 323.723 452.94 329.899C447.058 336.074 439.083 339.548 430.764 339.558ZM325.41 236.061C317.691 236.07 310.291 239.293 304.833 245.024C299.375 250.754 296.305 258.523 296.296 266.628V306.617C296.305 314.721 299.375 322.49 304.833 328.221C310.291 333.951 317.691 337.174 325.41 337.183H430.764C438.483 337.174 445.883 333.951 451.341 328.221C456.799 322.49 459.869 314.721 459.878 306.617V266.628C459.869 258.523 456.799 250.754 451.341 245.024C445.883 239.293 438.483 236.07 430.764 236.061L325.41 236.061Z" fill="white"/>
<path d="M377.951 315.944C391.292 315.944 402.107 304.59 402.107 290.583C402.107 276.576 391.292 265.222 377.951 265.222C364.611 265.222 353.796 276.576 353.796 290.583C353.796 304.59 364.611 315.944 377.951 315.944Z" fill="#A0616A"/>
<path d="M383.249 315.8C380.283 308.858 396.351 294.453 386.056 293.723C386.056 293.723 379.288 281.265 374.99 284.605C370.014 288.472 362.763 281.448 358.503 276.749C359.41 275.981 360.223 275.099 360.925 274.123C359.571 274.384 358.2 274.535 356.824 274.575C356.314 273.781 355.957 272.89 355.773 271.952C355.574 271.065 355.637 270.134 355.956 269.286C356.274 268.437 356.833 267.711 357.556 267.206C359.117 266.292 361.111 266.85 362.779 266.195C362.987 266.088 363.168 265.93 363.305 265.734C363.443 265.538 363.532 265.31 363.567 265.069C363.692 264.503 363.935 263.973 364.278 263.516C364.62 263.06 365.055 262.688 365.55 262.428C366.045 262.168 366.588 262.025 367.142 262.011C367.695 261.997 368.245 262.111 368.752 262.345C368.945 262.46 369.162 262.523 369.385 262.53C370.547 262.452 371.698 262.229 372.81 261.866C371.562 261.253 370.359 260.541 369.214 259.736C368.978 259.568 368.743 259.4 368.512 259.222C369.549 258.338 370.756 257.699 372.051 257.349C373.345 256.999 374.696 256.947 376.011 257.197C378.769 257.76 381.427 258.768 383.892 260.184C385.353 260.931 386.81 261.677 388.265 262.421C391.405 263.872 394.389 265.668 397.169 267.779C400.069 270.172 402.43 273.208 404.083 276.669C405.736 280.131 406.64 283.934 406.731 287.805C406.864 295.529 400.57 316.693 383.249 315.8Z" fill="#2F2E41"/>
<path opacity="0.5" d="M234.386 335.816H129.032C112.328 335.816 98.787 350.033 98.787 367.57V407.56C98.787 425.097 112.328 439.314 129.032 439.314H234.386C251.09 439.314 264.631 425.097 264.631 407.56V367.57C264.631 350.033 251.09 335.816 234.386 335.816Z" fill="white"/>
<path d="M234.386 440.501H129.032C120.714 440.491 112.738 437.018 106.856 430.842C100.974 424.666 97.6656 416.293 97.6562 407.56V367.571C97.6656 358.837 100.974 350.464 106.856 344.288C112.738 338.113 120.714 334.639 129.032 334.629H234.386C242.704 334.639 250.68 338.113 256.562 344.288C262.444 350.464 265.752 358.837 265.762 367.571V407.56C265.752 416.293 262.444 424.666 256.562 430.842C250.679 437.018 242.704 440.491 234.386 440.501ZM129.032 337.004C121.313 337.013 113.913 340.236 108.455 345.967C102.997 351.697 99.9267 359.467 99.918 367.571V407.56C99.9267 415.664 102.997 423.433 108.455 429.164C113.913 434.894 121.313 438.118 129.032 438.127H234.386C242.105 438.118 249.505 434.894 254.963 429.164C260.421 423.433 263.491 415.664 263.5 407.56V367.571C263.491 359.467 260.421 351.697 254.963 345.967C249.505 340.236 242.105 337.013 234.386 337.004H129.032Z" fill="white"/>
<path d="M183.327 420.573C196.882 420.573 207.87 409.036 207.87 394.804C207.87 380.573 196.882 369.036 183.327 369.036C169.772 369.036 158.783 380.573 158.783 394.804C158.783 409.036 169.772 420.573 183.327 420.573Z" fill="#FFB6B6"/>
<path d="M167.338 401.425C167.033 401.317 166.709 401.28 166.389 401.314C166.069 401.349 165.759 401.456 165.481 401.627C165.204 401.798 164.964 402.03 164.779 402.307C164.594 402.584 164.468 402.899 164.408 403.231C164.327 403.914 164.38 404.606 164.563 405.267C164.746 405.927 165.055 406.541 165.473 407.071C166.311 408.125 167.062 409.252 167.718 410.439C168.038 411.04 168.188 411.724 168.15 412.411C168.112 413.098 167.888 413.76 167.504 414.318C167.086 414.745 166.561 415.039 165.99 415.166C165.419 415.292 164.826 415.246 164.279 415.032C163.19 414.586 162.227 413.855 161.481 412.91C156.789 407.565 151.894 398.692 154.293 391.874C154.492 391.145 154.571 390.386 154.527 389.629C154.573 388.762 154.726 387.455 153.948 387.16C151.775 386.336 157.87 373.006 167.277 370.106C166.819 365.555 189.449 359.008 188.213 364.722C187.992 365.748 190.177 365.191 191.178 365.248C198.856 365.684 207.527 367.71 206.828 377.053C206.557 380.671 207.983 379.836 209.127 383.261C207.344 384.377 206.759 386.824 205.385 385.191C204.01 383.558 202.836 381.512 200.866 380.826C198.768 380.096 196.492 381.189 194.702 382.551C192.913 383.913 191.271 385.606 189.168 386.319C186.809 387.12 184.237 386.563 181.778 386.887C178.269 387.519 175.1 389.473 172.865 392.384C170.663 395.277 168.804 398.441 167.329 401.806" fill="#2F2E41"/>
<path d="M153.537 233.321L120.336 234.836C120.336 234.836 71.2553 322.74 77.0294 328.802C82.8036 334.864 88.7024 331.423 81.4224 339.206C74.1423 346.989 66.9246 343.958 71.2553 350.02C75.5859 356.082 81.36 349.261 75.5859 357.976C69.8117 366.691 116.727 448.813 116.727 448.813L136.936 438.204C136.936 438.204 117.27 383.948 115.916 376.835C114.561 369.723 114.383 363.643 115.916 361.378C117.449 359.114 153.537 233.321 153.537 233.321Z" fill="#3F3D56"/>
<path d="M323.57 260.948C327.869 260.948 331.354 257.289 331.354 252.776C331.354 248.262 327.869 244.603 323.57 244.603C319.271 244.603 315.786 248.262 315.786 252.776C315.786 257.289 319.271 260.948 323.57 260.948Z" fill="#6C63FF"/>
<path d="M322.508 257.029C322.374 257.029 322.241 256.996 322.121 256.933C322.001 256.87 321.896 256.778 321.816 256.665L319.692 253.692C319.623 253.597 319.572 253.488 319.543 253.372C319.515 253.256 319.508 253.135 319.524 253.017C319.539 252.898 319.577 252.784 319.635 252.68C319.693 252.577 319.77 252.487 319.862 252.415C319.953 252.343 320.057 252.291 320.168 252.261C320.278 252.232 320.393 252.225 320.506 252.243C320.619 252.26 320.728 252.301 320.826 252.362C320.924 252.424 321.009 252.505 321.077 252.602L322.467 254.546L326.035 248.927C326.162 248.726 326.36 248.587 326.586 248.54C326.811 248.492 327.045 248.541 327.236 248.675C327.427 248.809 327.559 249.016 327.604 249.253C327.65 249.489 327.603 249.735 327.476 249.935L323.229 256.624C323.152 256.745 323.048 256.845 322.927 256.915C322.806 256.986 322.671 257.025 322.532 257.029L322.508 257.029Z" fill="white"/>
<path d="M133.579 363.059C137.878 363.059 141.363 359.4 141.363 354.886C141.363 350.373 137.878 346.714 133.579 346.714C129.28 346.714 125.795 350.373 125.795 354.886C125.795 359.4 129.28 363.059 133.579 363.059Z" fill="#6C63FF"/>
<path d="M132.517 359.14C132.382 359.14 132.25 359.107 132.13 359.044C132.009 358.981 131.905 358.889 131.824 358.776L129.7 355.803C129.631 355.708 129.581 355.599 129.552 355.483C129.523 355.367 129.516 355.246 129.532 355.127C129.548 355.009 129.586 354.894 129.644 354.791C129.702 354.688 129.779 354.598 129.87 354.526C129.962 354.454 130.066 354.402 130.176 354.372C130.287 354.342 130.402 354.336 130.515 354.353C130.628 354.371 130.737 354.412 130.835 354.473C130.933 354.535 131.018 354.616 131.086 354.712L132.475 356.657L136.044 351.038C136.107 350.938 136.188 350.853 136.282 350.787C136.377 350.72 136.483 350.674 136.594 350.65C136.706 350.627 136.82 350.627 136.932 350.65C137.044 350.673 137.15 350.719 137.244 350.786C137.339 350.852 137.42 350.937 137.483 351.036C137.547 351.135 137.591 351.247 137.613 351.364C137.635 351.481 137.635 351.601 137.613 351.718C137.591 351.835 137.548 351.947 137.484 352.046L133.237 358.735C133.16 358.856 133.057 358.956 132.936 359.026C132.815 359.097 132.679 359.135 132.541 359.14L132.517 359.14Z" fill="white"/>
<path d="M435.529 265.311C434.009 265.311 432.524 264.837 431.26 263.951C429.996 263.064 429.011 261.804 428.429 260.33C427.848 258.855 427.695 257.233 427.992 255.668C428.288 254.103 429.02 252.665 430.095 251.537C431.17 250.408 432.539 249.64 434.03 249.328C435.521 249.017 437.066 249.177 438.47 249.788C439.875 250.398 441.075 251.432 441.919 252.759C442.764 254.086 443.214 255.646 443.214 257.242C443.214 259.382 442.405 261.434 440.964 262.947C439.522 264.461 437.568 265.311 435.529 265.311Z" fill="#E6E6E6"/>
<path d="M438.21 258.93L436.601 257.242L438.21 255.554C438.281 255.48 438.337 255.392 438.376 255.295C438.415 255.199 438.435 255.095 438.435 254.99C438.435 254.885 438.416 254.781 438.378 254.684C438.34 254.587 438.284 254.499 438.213 254.425C438.142 254.35 438.058 254.292 437.966 254.252C437.873 254.212 437.774 254.191 437.674 254.191C437.575 254.192 437.476 254.213 437.383 254.253C437.291 254.294 437.208 254.353 437.137 254.428L435.529 256.116L433.921 254.428C433.779 254.279 433.586 254.196 433.386 254.197C433.185 254.197 432.993 254.281 432.851 254.43C432.709 254.579 432.629 254.781 432.629 254.991C432.628 255.202 432.708 255.404 432.849 255.554L434.457 257.242L432.849 258.93C432.778 259.004 432.721 259.092 432.683 259.189C432.644 259.285 432.624 259.389 432.624 259.494C432.623 259.599 432.643 259.703 432.681 259.8C432.719 259.897 432.775 259.985 432.846 260.059C432.916 260.134 433 260.192 433.093 260.232C433.185 260.272 433.284 260.293 433.384 260.293C433.484 260.292 433.583 260.271 433.675 260.231C433.767 260.19 433.851 260.131 433.921 260.056L435.529 258.368L437.137 260.056C437.208 260.13 437.291 260.189 437.383 260.23C437.475 260.27 437.574 260.291 437.674 260.291C437.774 260.291 437.872 260.27 437.965 260.23C438.057 260.19 438.141 260.132 438.211 260.058C438.282 259.984 438.338 259.896 438.376 259.799C438.414 259.702 438.433 259.598 438.433 259.494C438.433 259.389 438.413 259.285 438.375 259.189C438.336 259.092 438.28 259.004 438.21 258.93Z" fill="white"/>
<path d="M236.491 362.672C234.971 362.672 233.485 362.199 232.221 361.312C230.957 360.426 229.972 359.166 229.391 357.691C228.809 356.217 228.657 354.594 228.953 353.029C229.25 351.464 229.982 350.026 231.056 348.898C232.131 347.77 233.501 347.001 234.991 346.69C236.482 346.378 238.027 346.538 239.432 347.149C240.836 347.76 242.036 348.794 242.881 350.121C243.725 351.448 244.176 353.008 244.176 354.603C244.176 356.743 243.366 358.796 241.925 360.309C240.484 361.822 238.529 362.672 236.491 362.672Z" fill="#E6E6E6"/>
<path d="M239.171 356.292L237.563 354.604L239.171 352.915C239.312 352.766 239.39 352.564 239.39 352.353C239.389 352.143 239.309 351.942 239.168 351.793C239.026 351.644 238.834 351.561 238.634 351.56C238.434 351.559 238.241 351.642 238.099 351.79L236.491 353.478L234.883 351.79C234.74 351.641 234.548 351.558 234.347 351.558C234.146 351.558 233.954 351.642 233.812 351.791C233.67 351.94 233.59 352.142 233.59 352.353C233.59 352.564 233.669 352.766 233.81 352.915L235.419 354.604L233.81 356.292C233.739 356.366 233.683 356.453 233.644 356.55C233.605 356.647 233.585 356.751 233.585 356.856C233.585 356.961 233.604 357.065 233.642 357.162C233.68 357.259 233.736 357.347 233.807 357.421C233.878 357.495 233.962 357.554 234.054 357.594C234.147 357.634 234.246 357.654 234.346 357.654C234.445 357.654 234.544 357.633 234.637 357.592C234.729 357.552 234.812 357.492 234.883 357.418L236.491 355.729L238.099 357.418C238.241 357.566 238.434 357.649 238.634 357.649C238.835 357.649 239.027 357.565 239.169 357.416C239.311 357.267 239.391 357.065 239.391 356.854C239.392 356.644 239.312 356.441 239.171 356.292Z" fill="white"/>
<path d="M323.438 122.295C330.933 122.295 337.009 115.916 337.009 108.047C337.009 100.178 330.933 93.7994 323.438 93.7994C315.943 93.7994 309.867 100.178 309.867 108.047C309.867 115.916 315.943 122.295 323.438 122.295Z" fill="#A0616A"/>
<path opacity="0.5" d="M430.398 104.247H325.044C308.34 104.247 294.799 118.464 294.799 136.002V175.991C294.799 193.528 308.34 207.745 325.044 207.745H430.398C447.102 207.745 460.643 193.528 460.643 175.991V136.002C460.643 118.464 447.102 104.247 430.398 104.247Z" fill="white"/>
<path d="M430.398 208.933H325.044C316.725 208.923 308.75 205.449 302.868 199.273C296.986 193.098 293.677 184.725 293.668 175.991V136.001C293.677 127.268 296.986 118.895 302.868 112.719C308.75 106.544 316.725 103.07 325.044 103.06H430.398C438.717 103.07 446.692 106.544 452.574 112.719C458.456 118.895 461.765 127.268 461.774 136.001V175.991C461.765 184.725 458.456 193.098 452.574 199.273C446.692 205.449 438.717 208.923 430.398 208.933ZM325.044 105.435C317.325 105.444 309.924 108.667 304.466 114.398C299.008 120.128 295.938 127.897 295.929 136.001V175.991C295.938 184.095 299.008 191.865 304.466 197.595C309.924 203.325 317.325 206.549 325.044 206.558H430.398C438.117 206.549 445.518 203.325 450.976 197.595C456.434 191.865 459.504 184.095 459.513 175.991V136.001C459.504 127.897 456.434 120.128 450.976 114.398C445.518 108.667 438.117 105.444 430.398 105.435H325.044Z" fill="white"/>
<path d="M409.198 158.967C409.268 165.613 411.282 179.449 409.838 185.958L409.605 185.414C408.404 186.413 407.129 187.308 405.791 188.092C404.827 185.628 403.384 183.402 401.554 181.555C401.795 184.61 401.451 187.685 400.543 190.598C395.138 192.64 385.652 186.204 379.772 186.067C370.312 185.84 361.094 183.371 352.057 180.756C348.849 179.83 345.321 178.623 343.869 175.827C342.416 173.03 345.016 170.012 344.846 166.857C343.634 144.382 353.83 140.614 363.532 134.609C365.667 133.287 366.715 130.442 369.127 129.334C372.474 127.8 376.46 128.535 380.1 129.307C379.196 128.994 378.384 128.442 377.742 127.705C377.1 126.967 376.649 126.068 376.434 125.094C376.282 124.14 376.384 123.161 376.729 122.263C377.074 121.366 377.648 120.587 378.388 120.01C379.492 119.252 380.741 118.757 382.047 118.561C383.353 118.365 384.684 118.472 385.946 118.876C388.419 119.687 390.758 120.894 392.881 122.453C394.323 123.283 395.612 124.377 396.686 125.685C397.192 126.303 397.506 127.069 397.587 127.88C397.667 128.692 397.51 129.509 397.136 130.224C396.674 130.837 396.087 131.332 395.418 131.673C394.748 132.014 394.014 132.192 393.27 132.194C392.124 132.229 390.978 132.104 389.863 131.822C394.974 133.145 399.58 136.071 403.068 140.211C407.4 145.503 409.121 152.322 409.198 158.967Z" fill="#2F2E41"/>
<path d="M375.263 180.606C386.842 180.606 396.228 170.751 396.228 158.595C396.228 146.439 386.842 136.584 375.263 136.584C363.685 136.584 354.299 146.439 354.299 158.595C354.299 170.751 363.685 180.606 375.263 180.606Z" fill="#FFB6B6"/>
<path d="M398.139 155.272C395.674 158.404 392.008 158.241 388.748 157.742C387.719 157.587 386.69 157.415 385.661 157.215C385.479 156.607 385.272 155.998 385.038 155.408C384.073 152.944 382.63 150.718 380.801 148.872C380.994 151.286 380.816 153.716 380.273 156.071C378.362 155.608 376.46 155.091 374.566 154.519C372.891 154.233 371.384 153.282 370.357 151.862C369.33 150.443 368.862 148.664 369.049 146.893C366.325 149.071 363.359 150.96 360.246 150.996C358.492 150.948 356.798 150.312 355.413 149.179C354.028 148.047 353.025 146.479 352.55 144.705C351.828 141.831 351.701 138.828 352.179 135.898C352.594 132.403 353.527 128.563 355.776 127.155C357.583 126.011 359.667 126.828 361.526 127.754C365.622 129.818 369.505 132.319 373.114 135.217L373.157 136.171C374.091 131.477 377.178 127.854 380.541 127.491C382.807 127.255 385.021 128.354 387.157 129.461C389.948 130.754 392.544 132.47 394.861 134.554C397.479 137.054 399.297 140.343 400.067 143.969C400.871 147.9 400.266 152.567 398.139 155.272Z" fill="#2F2E41"/>
<path d="M377.386 124.726C377.601 124.745 377.073 124.618 377.244 124.693C377.16 124.653 377.079 124.605 377.003 124.551C376.989 124.542 376.819 124.398 376.931 124.498C376.674 124.289 376.481 124.006 376.374 123.683C376.136 122.9 376.025 122.08 376.046 121.258C376.089 120.178 375.914 119.101 375.532 118.097C375.418 117.825 375.246 117.585 375.027 117.396C374.809 117.207 374.552 117.075 374.276 117.011C374 116.946 373.713 116.951 373.44 117.024C373.166 117.098 372.912 117.238 372.7 117.433C372.102 118.279 371.813 119.321 371.886 120.372C371.832 121.388 371.935 122.406 372.19 123.388C372.628 125.003 373.505 126.449 374.713 127.549C376.107 128.832 377.859 129.608 379.707 129.763C379.961 129.757 380.208 129.674 380.417 129.523C380.627 129.372 380.79 129.161 380.888 128.914C380.985 128.668 381.012 128.397 380.965 128.135C380.918 127.873 380.8 127.631 380.624 127.438L378.303 125.125C378.059 124.872 377.73 124.731 377.388 124.732C377.045 124.733 376.717 124.876 376.475 125.131C376.232 125.385 376.096 125.73 376.095 126.089C376.094 126.449 376.228 126.795 376.469 127.05L378.79 129.364L379.707 127.039C379.324 127.003 378.946 126.922 378.58 126.797C378.183 126.682 377.804 126.507 377.454 126.279C377.111 126.082 376.79 125.846 376.496 125.576C376.307 125.402 376.128 125.218 375.957 125.026C375.895 124.956 375.835 124.884 375.775 124.812C375.779 124.817 375.531 124.489 375.638 124.639C375.369 124.254 375.136 123.843 374.94 123.412C374.871 123.26 374.814 123.102 374.77 122.939C374.688 122.672 374.621 122.4 374.569 122.125C374.47 121.547 374.44 120.958 374.48 120.371C374.491 120.123 374.515 119.875 374.551 119.629C374.584 119.499 374.608 119.367 374.623 119.234C374.628 118.904 374.58 119.411 374.416 119.488L373.761 119.674C373.655 119.665 373.551 119.63 373.459 119.574C373.367 119.517 373.288 119.439 373.228 119.346C373.201 119.232 373.208 119.252 373.251 119.406C373.3 119.587 373.338 119.771 373.365 119.957C373.415 120.389 373.444 120.823 373.452 121.258C373.46 122.18 373.563 123.098 373.757 123.997C373.938 124.9 374.387 125.721 375.039 126.34C375.69 126.96 376.512 127.348 377.386 127.449C377.729 127.446 378.058 127.302 378.3 127.047C378.543 126.793 378.68 126.448 378.683 126.087C378.676 125.729 378.537 125.386 378.296 125.133C378.054 124.879 377.728 124.733 377.386 124.726Z" fill="#2F2E41"/>
<path d="M325.832 130.341C330.131 130.341 333.616 126.682 333.616 122.169C333.616 117.655 330.131 113.996 325.832 113.996C321.533 113.996 318.048 117.655 318.048 122.169C318.048 126.682 321.533 130.341 325.832 130.341Z" fill="#6C63FF"/>
<path d="M324.77 126.422C324.636 126.422 324.503 126.389 324.383 126.326C324.263 126.263 324.158 126.171 324.077 126.058L321.954 123.086C321.885 122.99 321.834 122.881 321.805 122.765C321.776 122.649 321.77 122.528 321.785 122.41C321.801 122.291 321.839 122.177 321.897 122.073C321.955 121.97 322.032 121.88 322.123 121.808C322.215 121.736 322.319 121.684 322.429 121.654C322.54 121.625 322.655 121.618 322.768 121.636C322.881 121.653 322.99 121.694 323.088 121.755C323.186 121.817 323.271 121.898 323.339 121.995L324.728 123.94L328.297 118.32C328.424 118.119 328.622 117.98 328.847 117.933C329.073 117.886 329.306 117.934 329.498 118.068C329.689 118.202 329.821 118.41 329.866 118.646C329.911 118.882 329.865 119.128 329.738 119.329L325.491 126.017C325.414 126.138 325.31 126.238 325.189 126.308C325.068 126.379 324.932 126.418 324.794 126.422L324.77 126.422Z" fill="white"/>
<path d="M432.137 131.142C430.617 131.142 429.131 130.669 427.867 129.782C426.603 128.895 425.618 127.635 425.036 126.161C424.455 124.687 424.303 123.064 424.599 121.499C424.896 119.934 425.628 118.496 426.702 117.368C427.777 116.239 429.147 115.471 430.637 115.16C432.128 114.848 433.673 115.008 435.078 115.619C436.482 116.229 437.682 117.264 438.527 118.59C439.371 119.917 439.822 121.477 439.822 123.073C439.822 125.213 439.012 127.265 437.571 128.779C436.13 130.292 434.175 131.142 432.137 131.142Z" fill="#E6E6E6"/>
<path d="M434.817 124.762L433.209 123.073L434.817 121.385C434.888 121.311 434.944 121.223 434.983 121.126C435.022 121.03 435.042 120.926 435.042 120.821C435.043 120.716 435.023 120.612 434.985 120.515C434.947 120.418 434.891 120.33 434.82 120.256C434.749 120.181 434.666 120.123 434.573 120.083C434.481 120.043 434.382 120.022 434.282 120.023C434.182 120.023 434.083 120.044 433.991 120.085C433.899 120.125 433.815 120.184 433.745 120.259L432.137 121.948L430.528 120.259C430.386 120.111 430.194 120.027 429.993 120.028C429.792 120.028 429.6 120.112 429.458 120.261C429.316 120.41 429.236 120.612 429.236 120.822C429.236 121.033 429.315 121.235 429.456 121.385L431.065 123.073L429.456 124.762C429.385 124.835 429.329 124.923 429.29 125.02C429.251 125.117 429.231 125.22 429.231 125.325C429.231 125.43 429.25 125.534 429.288 125.631C429.326 125.728 429.382 125.816 429.453 125.891C429.524 125.965 429.608 126.024 429.7 126.064C429.793 126.104 429.892 126.124 429.991 126.124C430.091 126.123 430.19 126.102 430.282 126.062C430.375 126.021 430.458 125.962 430.528 125.887L432.137 124.199L433.745 125.887C433.815 125.961 433.899 126.02 433.991 126.061C434.083 126.101 434.182 126.122 434.281 126.122C434.381 126.122 434.48 126.101 434.572 126.061C434.664 126.021 434.748 125.963 434.818 125.889C434.889 125.815 434.945 125.727 434.983 125.63C435.021 125.533 435.041 125.43 435.04 125.325C435.04 125.22 435.02 125.116 434.982 125.02C434.944 124.923 434.888 124.835 434.817 124.762Z" fill="white"/>
<path d="M484.439 54.6174H30.1213C29.8214 54.6174 29.5337 54.4923 29.3216 54.2696C29.1096 54.047 28.9904 53.745 28.9904 53.4301C28.9904 53.1152 29.1096 52.8132 29.3216 52.5905C29.5337 52.3678 29.8214 52.2427 30.1213 52.2427H484.439C484.739 52.2427 485.026 52.3678 485.238 52.5905C485.451 52.8132 485.57 53.1152 485.57 53.4301C485.57 53.745 485.451 54.047 485.238 54.2696C485.026 54.4923 484.739 54.6174 484.439 54.6174Z" fill="white"/>
<path d="M81.0341 35.6201C85.8608 35.6201 89.7736 31.4204 89.7736 26.2399C89.7736 21.0594 85.8608 16.8598 81.0341 16.8598C76.2074 16.8598 72.2946 21.0594 72.2946 26.2399C72.2946 31.4204 76.2074 35.6201 81.0341 35.6201Z" fill="white"/>
<path d="M111.225 35.6201C116.052 35.6201 119.965 31.4204 119.965 26.2399C119.965 21.0594 116.052 16.8598 111.225 16.8598C106.399 16.8598 102.486 21.0594 102.486 26.2399C102.486 31.4204 106.399 35.6201 111.225 35.6201Z" fill="white"/>
<path d="M141.416 35.6201C146.243 35.6201 150.156 31.4204 150.156 26.2399C150.156 21.0594 146.243 16.8598 141.416 16.8598C136.59 16.8598 132.677 21.0594 132.677 26.2399C132.677 31.4204 136.59 35.6201 141.416 35.6201Z" fill="white"/>
<path d="M175.842 33.6536C175.705 33.6538 175.568 33.6251 175.441 33.569C175.315 33.513 175.2 33.4308 175.104 33.3273L169.207 26.9983C169.018 26.7956 168.912 26.5233 168.912 26.2397C168.912 25.956 169.018 25.6837 169.207 25.481L175.104 19.1525C175.198 19.0506 175.312 18.9694 175.436 18.9134C175.561 18.8574 175.695 18.8278 175.831 18.8262C175.967 18.8247 176.101 18.8512 176.227 18.9043C176.353 18.9573 176.468 19.0359 176.565 19.1355C176.662 19.2352 176.739 19.3539 176.793 19.4849C176.846 19.6159 176.874 19.7567 176.876 19.8992C176.877 20.0417 176.852 20.183 176.801 20.3153C176.751 20.4475 176.676 20.568 176.581 20.6698L171.391 26.2396L176.581 31.8099C176.723 31.9626 176.819 32.156 176.857 32.3658C176.895 32.5756 176.874 32.7925 176.795 32.9893C176.716 33.1862 176.583 33.3542 176.414 33.4724C176.245 33.5906 176.046 33.6536 175.842 33.6536Z" fill="white"/>
<path d="M185.751 33.6537C185.548 33.6537 185.349 33.5906 185.18 33.4725C185.01 33.3543 184.878 33.1862 184.799 32.9894C184.72 32.7925 184.698 32.5756 184.736 32.3658C184.774 32.156 184.871 31.9627 185.013 31.81L190.202 26.2397L185.013 20.6699C184.821 20.4642 184.715 20.187 184.718 19.8992C184.721 19.6115 184.833 19.3368 185.029 19.1356C185.225 18.9344 185.489 18.8231 185.763 18.8263C186.037 18.8295 186.299 18.9468 186.49 19.1526L192.387 25.481C192.576 25.6837 192.682 25.9561 192.682 26.2397C192.682 26.5234 192.576 26.7957 192.387 26.9984L186.49 33.3273C186.394 33.4308 186.279 33.513 186.152 33.569C186.025 33.6251 185.889 33.6539 185.751 33.6537Z" fill="white"/>
<path d="M414.672 17.9457H403.707C403.41 17.9456 403.116 18.0071 402.841 18.1264C402.566 18.2458 402.317 18.4208 402.107 18.6415C401.896 18.8622 401.73 19.1242 401.616 19.4125C401.502 19.7009 401.444 20.0099 401.444 20.322V31.8449C401.444 32.157 401.502 32.466 401.616 32.7544C401.73 33.0427 401.896 33.3047 402.107 33.5254C402.317 33.7461 402.566 33.9211 402.841 34.0405C403.116 34.1598 403.41 34.2213 403.707 34.2212H414.672C415.274 34.2218 415.851 33.972 416.277 33.5265C416.703 33.0811 416.944 32.4763 416.946 31.8449V20.322C416.944 19.6906 416.703 19.0858 416.277 18.6404C415.851 18.1949 415.274 17.9451 414.672 17.9457Z" fill="white"/>
<path d="M387.802 17.9457H376.837C376.54 17.9456 376.246 18.0071 375.971 18.1264C375.697 18.2458 375.447 18.4208 375.237 18.6415C375.027 18.8622 374.86 19.1242 374.746 19.4125C374.632 19.7009 374.574 20.0099 374.574 20.322V31.8449C374.574 32.157 374.632 32.466 374.746 32.7544C374.86 33.0427 375.027 33.3047 375.237 33.5254C375.447 33.7461 375.697 33.9211 375.971 34.0405C376.246 34.1598 376.54 34.2213 376.837 34.2212H387.802C388.404 34.2218 388.981 33.972 389.407 33.5265C389.833 33.0811 390.074 32.4763 390.076 31.8449V20.322C390.074 19.6906 389.833 19.0858 389.407 18.6404C388.981 18.1949 388.404 17.9451 387.802 17.9457Z" fill="white"/>
<path d="M439.992 18.4883H429.027C428.73 18.4882 428.435 18.5496 428.161 18.669C427.886 18.7884 427.637 18.9634 427.426 19.1841C427.216 19.4047 427.05 19.6667 426.936 19.9551C426.822 20.2434 426.764 20.5524 426.764 20.8645V32.3875C426.764 32.6996 426.822 33.0086 426.936 33.297C427.05 33.5853 427.216 33.8473 427.426 34.068C427.637 34.2886 427.886 34.4637 428.161 34.583C428.435 34.7024 428.73 34.7638 429.027 34.7637H439.992C440.593 34.7643 441.17 34.5145 441.597 34.0691C442.023 33.6236 442.263 33.0189 442.266 32.3875V20.8645C442.263 20.2331 442.023 19.6284 441.597 19.1829C441.17 18.7375 440.593 18.4877 439.992 18.4883Z" fill="white"/>
<path d="M320.192 22.8718H232.544C232.181 22.8693 231.82 22.9424 231.483 23.0869C231.146 23.2314 230.84 23.4444 230.582 23.7137C230.324 23.9829 230.119 24.3031 229.979 24.6558C229.839 25.0085 229.767 25.3868 229.767 25.7688C229.767 26.1508 229.839 26.529 229.979 26.8817C230.119 27.2344 230.324 27.5547 230.582 27.8239C230.84 28.0932 231.146 28.3062 231.483 28.4507C231.82 28.5952 232.181 28.6683 232.544 28.6658H320.192C320.921 28.6609 321.618 28.3536 322.132 27.8108C322.645 27.268 322.934 26.5339 322.934 25.7688C322.934 25.0036 322.645 24.2696 322.132 23.7268C321.618 23.184 320.921 22.8767 320.192 22.8718Z" fill="white"/>
</g>
<defs>
<clipPath id="clip0_13_233">
<rect width="527" height="450" fill="white"/>
</clipPath>
</defs>
</svg>
