<?xml version="1.0" standalone="no"?>
<!DOCTYPE svg PUBLIC "-//W3C//DTD SVG 20010904//EN"
 "http://www.w3.org/TR/2001/REC-SVG-20010904/DTD/svg10.dtd">
<svg version="1.0" xmlns="http://www.w3.org/2000/svg"
 width="454.000000pt" height="280.000000pt" viewBox="0 0 454.000000 280.000000"
 preserveAspectRatio="xMidYMid meet">

<g transform="translate(0.000000,280.000000) scale(0.100000,-0.100000)"
fill="#000000" stroke="none">
<path d="M873 2103 c-34 -76 -148 -331 -253 -568 -106 -236 -207 -465 -226
-508 l-33 -78 157 3 157 3 56 135 56 135 295 3 295 2 58 -140 58 -140 158 0
c88 0 159 2 159 5 0 5 -47 111 -322 725 -60 135 -141 316 -180 403 l-70 157
-152 0 -152 0 -61 -137z m312 -408 c48 -115 90 -216 92 -222 4 -10 -38 -13
-191 -13 -108 0 -196 2 -196 5 0 3 38 96 84 207 47 112 90 217 96 233 14 38 7
50 115 -210z"/>
<path d="M1940 1595 l0 -645 150 0 150 0 0 645 0 645 -150 0 -150 0 0 -645z"/>
<path d="M2627 2132 c32 -59 173 -318 313 -575 l255 -467 73 2 73 3 175 295
c97 162 179 299 185 304 5 6 9 -133 9 -367 l0 -377 139 0 c90 0 142 4 147 11
3 6 3 296 -1 645 l-8 635 -124 -3 -125 -3 -229 -385 c-126 -212 -232 -386
-236 -387 -5 -2 -114 173 -243 387 l-234 390 -114 0 -113 0 58 -108z"/>
<path d="M2540 1283 l0 -333 145 0 145 0 0 70 0 71 -127 232 c-70 128 -135
246 -145 262 -18 29 -18 23 -18 -302z"/>
<path d="M470 686 l0 -76 64 0 c80 0 110 20 110 74 0 54 -22 70 -104 74 l-70
4 0 -76z m128 32 c7 -7 12 -21 12 -33 0 -32 -20 -45 -67 -45 l-43 0 0 45 0 45
43 0 c24 0 48 -5 55 -12z"/>
<path d="M780 685 c0 -60 3 -75 15 -75 12 0 15 15 15 75 0 60 -3 75 -15 75
-12 0 -15 -15 -15 -75z"/>
<path d="M964 747 c-3 -8 -4 -41 -2 -73 l3 -59 80 0 80 0 3 43 3 42 -45 0
c-34 0 -46 -4 -46 -15 0 -10 10 -15 30 -15 20 0 30 -5 30 -15 0 -12 -13 -15
-55 -15 l-55 0 0 46 0 47 70 -5 c62 -5 71 -3 68 11 -4 22 -155 30 -164 8z"/>
<path d="M1270 685 c0 -68 2 -75 20 -75 18 0 20 7 20 75 0 68 -2 75 -20 75
-18 0 -20 -7 -20 -75z"/>
<path d="M1420 745 c0 -10 11 -15 35 -15 l35 0 0 -60 c0 -47 3 -60 15 -60 12
0 15 13 15 60 l0 60 35 0 c24 0 35 5 35 15 0 12 -16 15 -85 15 -69 0 -85 -3
-85 -15z"/>
<path d="M1713 688 c-32 -58 -37 -74 -25 -77 8 -1 19 4 24 13 13 22 103 22
116 0 5 -9 16 -14 25 -13 13 3 9 17 -24 77 -26 46 -47 72 -58 72 -11 0 -32
-26 -58 -72z m75 7 c11 -24 10 -25 -18 -25 -34 0 -35 2 -18 30 17 26 22 25 36
-5z"/>
<path d="M1990 685 l0 -75 75 0 c60 0 75 3 75 15 0 12 -13 15 -55 15 l-55 0 0
60 c0 53 -2 60 -20 60 -18 0 -20 -7 -20 -75z"/>
<path d="M2451 691 c-23 -38 -41 -72 -41 -75 0 -13 31 -5 36 9 4 11 21 15 59
15 38 0 55 -4 59 -15 3 -8 14 -15 25 -15 19 0 16 7 -22 72 -24 40 -50 74 -59
76 -11 2 -29 -19 -57 -67z m79 -13 c0 -5 -13 -8 -30 -8 l-29 0 17 30 17 29 12
-22 c7 -12 12 -25 13 -29z"/>
<path d="M2732 748 c-17 -17 -16 -113 2 -127 9 -7 42 -11 88 -9 l73 3 3 43 3
42 -45 0 c-34 0 -46 -4 -46 -15 0 -10 10 -15 30 -15 20 0 30 -5 30 -15 0 -12
-13 -15 -55 -15 l-55 0 0 46 0 47 70 -5 c62 -5 71 -3 68 11 -3 13 -19 17 -78
19 -50 2 -79 -1 -88 -10z"/>
<path d="M3040 685 l0 -75 75 0 c60 0 75 3 75 15 0 12 -13 15 -55 15 -48 0
-55 2 -55 20 0 16 7 20 30 20 17 0 30 5 30 10 0 6 -13 10 -30 10 -20 0 -30 5
-30 15 0 12 13 15 55 15 42 0 55 3 55 15 0 12 -15 15 -75 15 l-75 0 0 -75z"/>
<path d="M3330 685 c0 -60 3 -75 15 -75 11 0 15 12 15 45 0 25 3 45 6 45 3 0
30 -20 58 -45 29 -25 58 -45 65 -45 7 0 11 25 11 75 0 60 -3 75 -15 75 -11 0
-15 -12 -15 -51 l0 -51 -61 51 c-33 28 -65 51 -70 51 -5 0 -9 -34 -9 -75z"/>
<path d="M3652 748 c-16 -16 -16 -110 0 -126 7 -7 39 -12 75 -12 52 0 64 3 73
20 6 11 8 25 5 30 -10 15 -35 12 -35 -5 0 -11 -12 -15 -45 -15 l-45 0 0 45 0
45 45 0 c25 0 45 -4 45 -10 0 -5 9 -10 20 -10 23 0 24 4 10 31 -9 16 -22 19
-73 19 -36 0 -68 -5 -75 -12z"/>
<path d="M3943 722 c29 -30 37 -46 37 -75 0 -30 4 -37 20 -37 16 0 20 7 20 31
0 20 12 45 36 75 33 39 34 44 16 44 -12 0 -30 -14 -43 -31 l-22 -32 -26 32
c-16 20 -35 31 -51 31 -23 0 -23 -1 13 -38z"/>
</g>
</svg>
