<svg width="45" height="45" viewBox="0 0 45 45" fill="none" xmlns="http://www.w3.org/2000/svg">
<path d="M0 34.0546C0.0946582 35.8313 1.56507 37.243 3.36551 37.243H41.6295C43.491 37.243 45 35.734 45 33.8725V27.4144H0V34.0546Z" fill="#73AF00"/>
<path d="M41.6295 7.75696H3.36551C1.56507 7.75696 0.0946582 9.16866 0 10.9454V17.5857H45V11.1276C45 9.26604 43.491 7.75696 41.6295 7.75696Z" fill="#82AFFF"/>
<path d="M45 17.586H0V27.4148H45V17.586Z" fill="#FF4B55"/>
<path d="M23.561 25.7178C21.8197 25.7178 20.407 24.3052 20.407 22.5622C20.407 20.8224 21.8196 19.4067 23.561 19.4067C24.2089 19.4067 24.8064 19.6059 25.3043 19.9432C25.3805 19.9949 25.4675 19.8946 25.4037 19.8282C24.6595 19.0546 23.6063 18.5825 22.4386 18.6224C20.4324 18.6908 18.7716 20.2993 18.6433 22.3026C18.4965 24.5972 20.3133 26.504 22.5756 26.504C23.6898 26.504 24.6913 26.0382 25.4065 25.2933C25.4696 25.2276 25.3824 25.1288 25.307 25.1801C24.8085 25.5183 24.2101 25.7178 23.561 25.7178Z" fill="#F5F5F5"/>
<path d="M26.3221 20.6198L26.6493 21.5399L27.5313 21.1206C27.5977 21.089 27.667 21.1584 27.6354 21.2248L27.2161 22.1068L28.1361 22.434C28.2055 22.4586 28.2055 22.5567 28.1361 22.5813L27.2161 22.9085L27.6354 23.7905C27.667 23.8569 27.5977 23.9263 27.5313 23.8947L26.6493 23.4754L26.3221 24.3955C26.2974 24.4649 26.1994 24.4649 26.1748 24.3955L25.8475 23.4755L24.9656 23.8947C24.8991 23.9264 24.8298 23.857 24.8614 23.7906L25.2806 22.9086L24.3606 22.5814C24.2913 22.5568 24.2913 22.4587 24.3606 22.4341L25.2806 22.1069L24.8614 21.2249C24.8298 21.1584 24.8991 21.0891 24.9656 21.1207L25.8475 21.54L26.1748 20.6199C26.1994 20.5507 26.2974 20.5507 26.3221 20.6198Z" fill="#F5F5F5"/>
</svg>
