<svg width="590" height="532" viewBox="0 0 590 532" fill="none" xmlns="http://www.w3.org/2000/svg">
<g clip-path="url(#clip0_103_641)">
<path d="M590 265.748C590.039 296.01 584.327 326.054 573.113 354.58C573.064 354.713 573.015 354.833 572.958 354.965V354.972C564.56 376.194 553.187 396.363 539.114 414.989C536.676 418.234 534.151 421.426 531.539 424.565C528.666 428.037 525.702 431.439 522.647 434.772C519.83 437.846 516.939 440.861 513.973 443.817C510.448 447.34 506.818 450.771 503.083 454.113C494.293 461.999 484.96 469.378 475.139 476.206C473.415 477.411 471.673 478.596 469.912 479.76C465.813 482.486 461.632 485.117 457.369 487.65C447.993 493.233 438.267 498.325 428.24 502.9C426.51 503.696 424.765 504.478 423.013 505.236C416.237 508.184 409.323 510.896 402.272 513.372C400.261 514.086 398.243 514.774 396.204 515.437C395.86 515.557 395.517 515.67 395.167 515.777C370.987 523.639 345.765 528.601 320.148 530.536C318.369 530.681 316.586 530.803 314.802 530.902C312.91 531.022 311.016 531.118 309.119 531.192C307.62 531.262 306.127 531.312 304.621 531.35C304.312 531.362 303.997 531.375 303.689 531.375C301.664 531.432 299.632 531.468 297.592 531.482C296.731 531.489 295.869 531.495 295 531.495C294.593 531.495 294.187 531.495 293.781 531.489C287.902 531.47 282.067 531.297 276.277 530.971C276.158 530.965 276.039 530.952 275.919 530.952C273.845 530.826 271.778 530.693 269.718 530.529C262.382 529.974 255.125 529.174 247.947 528.131C246.293 527.897 244.644 527.645 243 527.373C235.86 526.237 228.813 524.867 221.859 523.264C219.792 522.79 217.737 522.296 215.693 521.78C187.279 514.649 160.222 503.699 135.434 489.297C131.173 486.829 126.992 484.262 122.891 481.596C122.386 481.281 121.889 480.953 121.391 480.624C111.428 474.081 101.929 466.982 92.9494 459.371C88.696 455.773 84.5665 452.061 80.5608 448.236C28.7272 398.961 -0.11291 333.632 -0.000158924 265.748C-0.000158924 118.98 132.077 0 295 0C457.922 0 590 118.98 590 265.748Z" fill="#F2F2F2"/>
<path d="M330.989 67.7484C336.895 58.9481 343.894 49.5521 354.856 46.6785C367.549 43.3508 380.589 49.9615 391.649 56.4848C424.727 75.9941 456.581 97.1366 487.066 119.816L487.033 120.157C463.299 118.683 439.565 117.208 415.831 115.734C398.684 114.669 380.947 113.456 365.793 106.149C360.043 103.376 354.437 99.6718 347.921 99.4137C339.826 99.0931 332.767 104.186 327.219 109.508C294.405 140.985 284.91 189.122 248.095 216.778C271.309 165.205 299.027 115.372 330.989 67.7484Z" fill="white"/>
<path d="M129.285 334.736C132.914 330.608 134.397 329.642 137.976 325.476C167.121 291.519 194.515 256.415 220.157 220.165C237.575 195.545 254.129 170.452 269.819 144.886C277.289 132.732 284.554 120.482 291.614 108.137C297.093 98.5652 302.449 88.936 307.683 79.2495C309.18 76.4829 310.634 73.7035 312.081 70.9177C315.492 64.3668 318.838 57.7841 322.432 51.3222C326.527 43.9572 331.511 36.236 339.031 31.2878C342.453 28.9434 346.545 27.525 350.828 27.1982C356.949 26.842 362.598 29.119 367.907 31.6058C406.752 49.853 443.119 72.7304 476.013 98.7624C508.991 124.853 538.468 154.329 563.842 186.589C564.619 187.588 566.454 186.634 565.671 185.629C562.585 181.699 559.439 177.81 556.231 173.965C529.611 142.05 498.911 113.071 464.766 87.6258C447.861 75.0255 430.16 63.3181 411.751 52.5624C402.382 47.0927 392.836 41.8795 383.115 36.9228C378.215 34.4233 373.294 31.9556 368.288 29.6405C363.381 27.3699 358.171 25.3283 352.565 25.252C333.488 24.9849 323.611 44.4469 316.826 57.5424C314.694 61.6638 312.536 65.7724 310.352 69.8683C302.098 85.4188 293.527 100.827 284.639 116.094C279.153 125.52 273.547 134.89 267.821 144.206C250.001 173.214 231.061 201.635 211 229.47C184.425 266.339 158.063 298.909 127.788 333.388C126.955 334.342 128.445 335.703 129.285 334.736Z" fill="white"/>
<path d="M234.869 179.973L206.446 170.609L192.335 165.959C187.739 164.445 183.154 162.721 178.403 161.637C174.202 160.678 169.934 160.521 165.793 161.781C162.138 163 158.794 164.867 155.957 167.274C153.059 169.678 150.363 172.272 147.89 175.035C144.817 178.361 141.79 181.722 138.75 185.072C126.201 198.897 113.734 212.782 101.349 226.727C88.9641 240.672 76.6623 254.677 64.4432 268.74C52.1943 282.838 40.0296 296.995 27.9492 311.211C26.4693 312.952 24.9907 314.694 23.5134 316.438C22.6972 317.401 20.8567 316.451 21.6845 315.475C33.8541 301.116 46.1085 286.816 58.4477 272.575C70.8172 258.3 83.2723 244.085 95.8127 229.931C108.353 215.777 120.978 201.684 133.688 187.653C136.854 184.158 140.026 180.666 143.203 177.178C145.882 174.236 148.532 171.262 151.471 168.524C156.866 163.497 163.607 159.055 171.676 158.935C176.419 158.864 181.011 160.22 185.418 161.656C190.17 163.205 194.91 164.782 199.655 166.346L228.276 175.776L235.432 178.133C236.701 178.552 236.153 180.397 234.869 179.973Z" fill="white"/>
<path d="M157.027 180.067C159.825 176.999 162.85 173.787 167.035 172.541L170.942 172.679C141.2 220.022 101.032 261.39 52.9025 294.244C87.6107 256.185 122.319 218.126 157.027 180.067Z" fill="white"/>
<path d="M347.023 131.051C347.025 135.889 345.708 140.653 343.189 144.925C340.67 149.197 337.026 152.847 332.575 155.555C328.125 158.262 323.004 159.944 317.664 160.452C312.324 160.961 306.926 160.28 301.946 158.471C296.965 156.662 292.554 153.779 289.099 150.075C285.644 146.372 283.252 141.961 282.131 137.23C281.01 132.499 281.196 127.592 282.671 122.941C284.147 118.289 286.868 114.035 290.594 110.552C290.647 110.505 290.699 110.458 290.752 110.411C291.014 110.162 291.277 109.914 291.552 109.678C291.554 109.678 291.556 109.677 291.558 109.677C291.559 109.676 291.561 109.675 291.562 109.674C291.563 109.673 291.564 109.672 291.565 109.67C291.565 109.669 291.566 109.667 291.566 109.666C291.907 109.382 292.248 109.098 292.602 108.826C297.343 105.082 303.181 102.648 309.417 101.816C315.654 100.984 322.024 101.788 327.766 104.133C333.508 106.478 338.379 110.264 341.794 115.038C345.209 119.812 347.024 125.372 347.023 131.051Z" fill="#2F2E41"/>
<path d="M325.586 155.413C336.329 145.735 336.329 130.043 325.586 120.365C314.842 110.687 297.424 110.687 286.68 120.365C275.937 130.043 275.937 145.735 286.68 155.413C297.424 165.091 314.842 165.091 325.586 155.413Z" fill="#9E616A"/>
<path d="M325.789 114.057C321.527 110.464 316.227 108.028 310.496 107.027C304.766 106.027 298.839 106.503 293.395 108.401C293.234 108.458 293.073 108.521 292.912 108.59C292.905 108.59 292.905 108.597 292.898 108.597C292.372 108.792 291.84 108.994 291.328 109.215L291.013 109.354V109.392C290.957 109.43 290.894 109.474 290.831 109.512C290.702 109.62 290.546 109.698 290.375 109.739C285.085 109.802 280.776 111.418 277.58 114.543C273.313 118.709 271.309 125.444 271.926 133.511L271.94 133.757L272.178 133.896C274.434 135.165 276.571 136.282 278.631 137.261C279.851 137.848 281.035 138.384 282.212 138.877C282.352 138.933 282.492 138.997 282.632 139.053C294.545 144.009 305.441 144.905 315.909 141.768L316.105 141.711L320.555 134.995C321.013 137.289 322.239 139.403 324.067 141.053C325.895 142.704 328.239 143.812 330.785 144.229L332.635 144.526L335.347 144.955L335.459 144.495C338.15 133.574 334.261 121.347 325.789 114.057Z" fill="#2F2E41"/>
<path d="M393.371 166.071C384.009 161.718 396.049 145.92 393.63 136.683C391.211 127.446 373.788 124.476 372.678 115.038C371.568 105.6 368.957 95.8664 362.044 88.7051C357.627 84.129 351.117 80.7508 344.416 81.3239C342.148 81.5179 339.954 82.1498 337.982 83.1766C336.01 84.2034 334.307 85.6011 332.988 87.2743C331.67 88.9475 330.767 90.8571 330.342 92.8729C329.917 94.8886 329.979 96.9633 330.524 98.9556C328.616 96.52 323.678 97.0478 322.455 99.8182C321.369 102.281 323.769 105.264 326.594 105.482C330.291 109.595 334.524 113.959 340.316 114.789C342.181 115.056 344.278 114.86 345.641 113.682C347.003 112.503 347.109 110.147 345.493 109.266C352.771 111.87 357.038 118.959 358.118 125.946C359.198 132.934 357.704 140.004 356.72 147.003C355.735 154.001 355.311 161.364 358.357 167.863C361.956 175.542 370.243 181.046 379.286 182.811C388.329 184.576 397.96 182.851 406.146 178.964C414.332 175.078 421.158 169.144 426.734 162.492C417.129 168.637 403.839 170.939 393.371 166.071Z" fill="#2F2E41"/>
<path d="M287.007 270.168L268.005 387.058L371.731 380.015L340.684 265.023L287.007 270.168Z" fill="#FFB8B8"/>
<path d="M395.517 514.584C395.425 514.987 395.308 515.386 395.167 515.777C383.196 519.676 370.954 522.862 358.52 525.315C355.899 517.551 350.875 502.85 346.474 490.825C342.88 481.009 339.705 472.98 338.598 471.976C335.522 469.218 338.598 465.538 338.598 465.538L325.46 428.743L319.49 412.029L317.444 447.144L314.473 498.008L314.389 499.435C314.389 499.435 310.297 510.475 312.343 512.318C314.389 514.161 310.297 521.528 310.297 521.528L309.119 531.192C307.62 531.261 306.127 531.312 304.621 531.35L304.109 531.495L303.689 531.375C301.664 531.432 299.632 531.468 297.593 531.482C296.731 531.489 295.869 531.495 295 531.495C294.594 531.495 294.187 531.495 293.781 531.489C287.902 531.47 282.067 531.297 276.277 530.971L272.682 504.617L268.969 477.386C268.969 477.386 273.054 470.032 268.969 466.352C266.509 464.136 267.742 460.917 269.123 458.708C268.268 455.293 267.098 450.041 265.521 442.264C265.465 442.006 265.416 441.74 265.36 441.475C264.862 439.007 264.416 436.588 264.021 434.216C263.321 430.044 262.774 426.035 262.354 422.198C260.928 409.767 260.731 397.247 261.765 384.785C262.158 380.353 262.648 377.109 262.97 375.234C262.998 375.057 263.3 374.066 263.79 372.501C264.561 369.995 265.829 366.018 267.252 361.568C268.009 359.207 268.807 356.714 269.599 354.233C270.98 349.935 272.353 345.674 273.46 342.227V342.208C274.434 339.185 275.212 336.799 275.618 335.549C275.815 334.937 275.92 334.602 275.92 334.602C275.92 334.602 276.137 334.558 276.55 334.476C277.833 334.211 281 333.573 285.386 332.721C289.962 331.85 295.855 330.745 302.329 329.622C307.872 328.662 313.842 327.684 319.777 326.806C321.907 326.497 324.038 326.194 326.14 325.91C339.124 324.168 351.043 323.177 356.691 324.307C357.082 324.381 357.468 324.476 357.847 324.591C358.23 324.705 358.599 324.855 358.947 325.039C359.122 325.134 360.818 331.092 362.983 338.856C363.004 338.932 363.025 339.014 363.046 339.09C363.698 341.438 364.392 343.938 365.099 346.494C365.821 349.101 366.55 351.759 367.265 354.347C369.388 362.035 371.35 369.149 372.359 372.634C372.744 373.984 372.996 374.786 373.052 374.874C375.421 378.428 377.355 387.139 378.924 398.066C380.326 407.818 381.44 419.338 382.302 430.53C382.729 436.066 383.094 441.526 383.402 446.651C384.446 463.897 384.866 477.361 384.866 477.361C384.866 477.361 386.429 488.584 389.533 493.88C389.915 494.564 390.404 495.195 390.984 495.755C393.051 497.617 393.289 499.233 393.016 500.382C392.896 500.924 392.648 501.437 392.287 501.884C392.205 501.993 392.114 502.097 392.014 502.193C391.747 503.335 391.794 504.519 392.15 505.641C392.507 506.763 393.162 507.79 394.06 508.632C396.043 510.431 395.882 513.006 395.517 514.584Z" fill="#2F2E41"/>
<path d="M361.54 232.677C361.421 231.882 361.294 231.08 361.161 230.272C361.084 229.755 360.993 229.237 360.909 228.726C360.019 223.562 363.726 219.144 358.926 215.571C357.804 214.748 356.889 213.72 356.242 212.554L355.142 210.559L353.117 206.86L348.689 198.818L347.925 197.436C347.709 197.043 347.46 196.665 347.182 196.306C346.354 195.223 345.276 194.314 344.022 193.642L333.021 187.734C331.32 186.825 329.952 185.489 329.083 183.89L328.809 183.385C327.597 181.144 325.425 175.785 322.853 173.455L322.846 173.449C322.286 172.872 321.525 172.483 320.688 172.344L309.736 171.366C307.984 171.206 306.217 171.458 304.606 172.099C302.996 172.74 301.598 173.747 300.55 175.021L300.248 176.252L298.49 183.467L298.391 183.486C297.873 183.593 297.354 183.7 296.843 183.833C285.484 186.629 280.748 222.401 280.748 222.401C280.748 222.401 272.794 234.224 275.92 241.54L281.497 253.337C281.541 253.427 281.573 253.52 281.595 253.615C282.1 254.899 282.277 256.269 282.114 257.623L282.121 258.084L282.135 259.101L282.177 261.708L282.31 270.355L282.478 281.181L282.625 290.403L282.674 292.859L273.488 328.87C273.338 330.054 273.448 331.252 273.812 332.397C274.176 333.542 274.788 334.611 275.611 335.542L275.618 335.549C275.82 335.782 276.035 336.005 276.263 336.218L276.27 336.224C276.487 336.426 276.711 336.609 276.943 336.792C278.049 337.664 279.353 338.307 280.765 338.677C282.176 339.047 283.66 339.134 285.113 338.932L286.339 338.762H286.346L304.144 336.357H304.158L306.218 336.079H306.232L326.154 333.384H326.168L329.58 332.917C329.853 332.885 330.12 332.853 330.393 332.834L348.633 331.705C349.051 331.679 349.468 331.631 349.88 331.559H349.887C351.491 331.274 352.994 330.644 354.271 329.725C355.548 328.805 356.561 327.622 357.223 326.276C357.499 325.736 357.708 325.171 357.847 324.591C358.005 323.963 358.092 323.322 358.106 322.678L358.309 307.2L359.003 257.182C359.017 255.513 359.546 253.88 360.531 252.466C363.06 248.83 362.773 241.041 361.54 232.677Z" fill="#6C63FF"/>
<path d="M330.958 366.267C330.702 364.991 330.759 363.68 331.125 362.427C331.492 361.173 332.159 360.007 333.08 359.011C334.001 358.015 335.154 357.212 336.456 356.661C337.758 356.109 339.179 355.822 340.618 355.818L351.998 326.019L363.093 338.991L350.586 365.3C350.432 367.478 349.396 369.53 347.676 371.067C345.955 372.603 343.668 373.518 341.249 373.637C338.829 373.756 336.445 373.072 334.549 371.713C332.652 370.355 331.375 368.417 330.958 366.267Z" fill="#9E616A"/>
<path d="M374.377 303.571L371.819 309.378L368.246 345.301C367.136 345.553 366.075 345.955 365.099 346.494C362.98 347.675 361.367 349.466 360.521 351.577C359.675 353.688 359.646 355.994 360.44 358.122L361.491 360.962L353.678 358.797L340.834 355.243L325.691 351.052L328.256 343.559C328.849 341.838 328.969 340.012 328.606 338.239C328.242 336.467 327.405 334.8 326.168 333.384C325.861 333.031 325.531 332.696 325.18 332.38L326.14 325.91L326.707 322.066L319.777 326.806L306.225 336.079H306.218L304.425 337.31C304.425 337.31 304.326 336.982 304.144 336.357C303.801 335.151 303.156 332.841 302.329 329.622C298.235 313.58 295.219 297.33 293.297 280.96C292.877 277.274 292.513 273.499 292.218 269.668C291.917 265.722 291.693 261.72 291.574 257.693C290.564 224.913 296.156 190.549 319.525 172.976C320.655 172.983 321.777 173.145 322.853 173.456C332.313 176.075 342.691 188.876 349.866 198.036C351.562 200.201 353.075 202.158 354.357 203.729L357.462 207.536C361.7 212.736 364.633 218.704 366.059 225.027C366.361 226.365 366.597 227.72 366.767 229.092L370.158 257.194V264.435L374.377 303.571Z" fill="#6C63FF"/>
<path d="M17.0902 353.947C23.1775 360.445 29.7615 366.551 36.7942 372.221L553.626 372.853C560.659 367.182 567.243 361.076 573.33 354.578L17.0902 353.947Z" fill="#CCCCCC"/>
<path d="M297.593 531.482C296.731 531.489 295.869 531.495 295 531.495C294.594 531.495 294.187 531.495 293.781 531.489C287.902 531.47 282.067 531.297 276.277 530.971L276.417 532L275.92 530.952L264.813 507.66L272.682 504.617L287.117 499.031L291.496 512.596L295.687 525.587L296.934 529.437L297.593 531.482Z" fill="#FFB6B6"/>
<path d="M246.139 504.44L243 527.373C235.86 526.237 228.813 524.867 221.86 523.264V504.447L246.139 504.44Z" fill="#FFB6B6"/>
<path d="M135.434 462.173V489.297C131.173 486.829 126.992 484.262 122.891 481.596V462.173H135.434Z" fill="#CACACA"/>
<path d="M184.028 457.654V471.206C184.027 473.703 182.927 476.097 180.968 477.863C179.009 479.629 176.352 480.622 173.581 480.624H121.391C111.428 474.081 101.929 466.982 92.9495 459.371C88.6962 455.773 84.5667 452.061 80.5609 448.236H173.581C176.351 448.239 179.008 449.233 180.967 450.998C182.925 452.764 184.026 455.158 184.028 457.654Z" fill="#3F3D56"/>
<path d="M306.338 530.857L304.621 531.35L304.109 531.495L303.689 531.375C301.664 531.432 299.632 531.468 297.593 531.482C296.731 531.489 295.869 531.495 295 531.495C294.594 531.495 294.187 531.495 293.781 531.489C287.902 531.47 282.067 531.297 276.277 530.971L276.417 532L275.92 530.952C273.845 530.826 271.778 530.693 269.718 530.529L253.413 505.93L219.856 455.312L215.967 449.448C215.967 449.448 202.702 452.983 183.93 456.372C169.783 458.935 152.51 461.403 135.434 462.211C131.222 462.413 127.025 462.514 122.891 462.483C112.205 462.419 101.94 461.517 92.9495 459.371C88.6962 455.773 84.5667 452.061 80.5609 448.236C73.7324 441.731 67.273 434.92 61.2073 427.828C61.1256 425.225 61.2732 422.621 61.6487 420.039C61.7118 419.61 61.7748 419.174 61.8519 418.732L63.7649 389.468L77.9753 387.777L99.5993 385.201L123.024 382.411L125.603 400.603C125.603 400.603 143.842 399.77 166.952 400.048C204.069 400.502 253.735 403.835 260.462 418.139C261.093 419.483 261.723 420.84 262.354 422.198C275.415 450.382 287.411 480.409 295.561 501.745C297.116 505.81 298.525 509.553 299.779 512.911C303.92 524.002 306.338 530.857 306.338 530.857Z" fill="#2F2E41"/>
<path d="M266.607 434.267C266.264 436.943 265.902 439.609 265.521 442.264C262.158 465.752 257.526 488.186 253.413 505.93C251.402 514.591 249.51 522.127 247.947 528.13C246.293 527.897 244.644 527.644 243 527.373C235.86 526.237 228.813 524.867 221.86 523.264C219.793 522.79 217.737 522.296 215.693 521.78L219.856 455.312L221.229 433.326L264.021 434.216L266.607 434.267Z" fill="#2F2E41"/>
<path d="M335.413 331.458C337.198 330.56 339.179 330.026 341.218 329.892C343.256 329.759 345.302 330.03 347.212 330.686C349.122 331.342 350.849 332.367 352.271 333.69C353.693 335.012 354.776 336.599 355.444 338.339L405.126 338.392L390.888 357.793L345.891 354.768C342.572 355.585 339.035 355.276 335.951 353.901C332.867 352.526 330.451 350.179 329.159 347.306C327.868 344.432 327.791 341.232 328.944 338.311C330.096 335.391 332.398 332.952 335.413 331.458Z" fill="#FFB6B6"/>
<path d="M362.5 357.695L451.979 365.702L452.215 365.431C452.667 364.911 497.457 313.262 504.983 300.967C509.613 293.58 511.299 284.989 509.761 276.62L509.71 276.415L509.532 276.279C505.883 273.525 501.3 271.972 496.54 271.878C491.78 271.784 487.127 273.154 483.347 275.762C465.173 288.442 450.519 304.754 440.542 323.41L434.88 334.027L369.216 336.565L362.5 357.695Z" fill="#6C63FF"/>
<path d="M327.99 503.241L314.802 530.902C312.91 531.022 311.016 531.118 309.119 531.192C307.62 531.262 306.127 531.312 304.621 531.35L304.109 531.495L303.689 531.375C301.664 531.432 299.632 531.468 297.593 531.482C296.731 531.489 295.869 531.495 295 531.495C294.594 531.495 294.187 531.495 293.781 531.489L294.657 528.787L295.687 525.587L299.779 512.912L305.686 494.612L314.473 498.008L327.99 503.241Z" fill="#FFB6B6"/>
<path d="M423.013 505.236C416.237 508.184 409.324 510.896 402.272 513.372L395.377 502.925L417.604 494.132L423.013 505.236Z" fill="#FFB6B6"/>
<path d="M469.912 457.755V479.76C465.813 482.486 461.632 485.117 457.369 487.65V457.755H469.912Z" fill="#CACACA"/>
<path d="M513.973 443.817C510.448 447.34 506.818 450.771 503.084 454.113C494.294 461.999 484.96 469.378 475.139 476.206H419.222C417.738 476.206 416.27 475.921 414.918 475.369C413.566 474.817 412.36 474.011 411.381 473.005L411.374 472.986C410.208 471.801 409.398 470.367 409.02 468.82L409.013 468.808C408.855 468.144 408.775 467.467 408.775 466.788V453.235C408.776 450.739 409.878 448.346 411.836 446.58C413.795 444.814 416.451 443.821 419.222 443.817H513.973Z" fill="#3F3D56"/>
<path d="M537.012 390.92L530.951 414.313C531.544 417.703 531.741 421.138 531.54 424.565C528.667 428.036 525.703 431.439 522.648 434.772C519.831 437.846 516.939 440.861 513.973 443.817C510.448 447.339 506.818 450.771 503.084 454.112C493.358 456.865 481.894 457.988 469.912 458.064C465.778 458.095 461.58 457.994 457.369 457.792C440.293 456.985 423.02 454.516 408.873 451.954C405.131 451.285 401.613 450.603 398.376 449.94C392.245 448.696 387.116 447.535 383.402 446.651C379.219 445.667 376.836 445.029 376.836 445.029L360.923 469.035L346.474 490.825L320.149 530.535C318.369 530.681 316.587 530.803 314.802 530.901C312.91 531.021 311.016 531.118 309.119 531.192C307.62 531.261 306.127 531.312 304.621 531.35L304.109 531.495L303.689 531.375L296.934 529.437L294.657 528.787L286.465 526.439C286.465 526.439 288.294 521.25 291.496 512.596C292.674 509.421 294.033 505.772 295.561 501.745C301.075 487.189 308.72 467.64 317.444 447.144C320.029 441.059 322.706 434.885 325.46 428.743C327.716 423.7 330.015 418.675 332.341 413.72C336.384 405.129 355.92 400.496 378.924 398.066C380.095 397.946 381.272 397.826 382.456 397.712C394.179 396.601 406.616 396.027 418.248 395.762C424.071 395.629 429.691 395.579 434.918 395.572C436.607 395.572 438.249 395.576 439.844 395.585H439.851C444.161 395.604 448.127 395.661 451.616 395.724C452.296 395.736 452.955 395.755 453.599 395.768H453.606C454.041 395.774 454.468 395.787 454.889 395.793C462.519 395.97 467.2 396.185 467.2 396.185L469.015 383.358L469.386 380.77L469.737 378.308V378.302L469.779 377.992L470.066 377.986L475.111 377.898L517.518 377.153L540.684 376.743L537.012 390.92Z" fill="#2F2E41"/>
<path d="M428.24 502.9C426.51 503.696 424.765 504.478 423.013 505.236C416.237 508.184 409.324 510.896 402.272 513.372C400.261 514.086 398.243 514.774 396.204 515.436C395.98 515.152 395.748 514.868 395.517 514.584C385.791 502.559 373.431 486.69 360.923 469.035C355.689 461.649 350.426 453.948 345.318 446.083L382.302 430.53L386.45 428.788L398.376 449.94L409.013 468.808L411.381 473.005L428.24 502.9Z" fill="#2F2E41"/>
<path d="M481.924 239.9C500.741 239.9 515.996 226.158 515.996 209.206C515.996 192.254 500.741 178.512 481.924 178.512C463.106 178.512 447.851 192.254 447.851 209.206C447.851 226.158 463.106 239.9 481.924 239.9Z" fill="#FFB6B6"/>
<path d="M480.796 238.567C488.762 242.01 498.568 240.844 506.173 236.793C513.779 232.742 519.376 226.135 523.287 218.998C526.152 213.771 528.233 207.785 526.574 202.15C524.915 196.516 518.298 191.795 512.097 193.463C516.345 190.382 515.85 184.028 512.418 180.211C508.985 176.393 503.57 174.557 498.337 173.173C490.743 171.165 482.763 169.748 474.931 170.775C467.099 171.802 459.387 175.622 455.702 181.932C453.144 182.526 450.439 182.338 448.012 181.399C445.584 180.46 443.571 178.822 442.288 176.742C441.434 178.742 441.336 180.939 442.008 182.994C442.68 185.049 444.085 186.847 446.006 188.11L435.399 182.926C432.695 186.303 435.152 191.452 439.257 193.365C443.362 195.278 448.325 194.768 452.805 193.746C457.285 192.724 451.999 201.247 456.62 201.329C461.241 201.411 466.24 203.59 467.563 207.579C468.256 209.669 467.852 211.912 468.056 214.085C468.261 216.258 469.416 218.669 471.754 219.235C473.231 219.593 474.847 219.119 476.312 219.516C478.127 220.008 479.234 221.758 479.394 223.46C479.553 225.162 478.961 226.84 478.376 228.465C476.064 234.885 483.484 231.286 481.172 237.707L480.796 238.567Z" fill="#2F2E41"/>
<path d="M547.649 329.23C547.369 303.88 546.093 286.603 543.865 277.873C537.881 254.404 510.238 250.124 505.907 249.594C505.446 248.488 504.737 247.479 503.825 246.63C502.912 245.782 501.815 245.111 500.603 244.66C499.39 244.21 498.087 243.989 496.776 244.011C495.464 244.034 494.172 244.299 492.979 244.791L473.338 252.895C469.354 254.545 465.788 256.914 462.863 259.857C459.937 262.8 457.714 266.253 456.332 270.002L453.417 278.018L451.953 331.818L456.788 354.448L456.795 354.46L460.053 369.704L457.811 372.734L445.009 390.03L444.791 390.333L444.784 390.339L444.224 391.091C445.002 391.476 445.772 391.854 446.529 392.233C448.491 393.205 450.404 394.158 452.268 395.093C452.716 395.32 453.158 395.541 453.599 395.768H453.606C453.887 395.907 454.167 396.046 454.44 396.185C461.433 399.707 467.798 402.97 473.535 405.975C474.333 406.392 475.125 406.808 475.903 407.218C502.39 421.175 515.816 429.722 522.647 434.772C525.703 431.439 528.667 428.036 531.54 424.565C534.146 421.427 536.671 418.235 539.114 414.989C539.542 412.451 539.829 409.914 540.109 407.427C540.446 404.435 540.796 401.335 541.385 398.287C541.644 396.936 540.649 395.654 539.689 394.417C538.799 393.262 537.958 392.176 538.133 391.154C538.315 390.099 539.605 388.951 540.859 387.833C542.225 386.609 543.641 385.346 543.844 384.014C544.405 380.303 544.902 376.579 545.337 372.842C546.051 366.763 546.6 360.665 546.983 354.549C547.523 346.103 547.745 337.663 547.649 329.23Z" fill="#6C63FF"/>
<path d="M417.949 418.713C418.526 416.947 419.527 415.316 420.879 413.936C422.232 412.556 423.904 411.46 425.778 410.725C427.652 409.99 429.682 409.634 431.726 409.682C433.769 409.73 435.775 410.181 437.604 411.004L473.14 379.726L478.036 402.562L443.54 428.762C441.803 431.438 439.036 433.447 435.765 434.408C432.493 435.369 428.944 435.216 425.79 433.977C422.635 432.739 420.095 430.501 418.65 427.687C417.205 424.874 416.955 421.681 417.949 418.713Z" fill="#FFB6B6"/>
<path d="M457.679 420.385L527.827 369.706L527.784 369.363C527.703 368.707 519.586 303.575 515.413 290.048C512.984 281.852 507.516 274.651 499.917 269.641L499.721 269.527L499.488 269.543C494.741 269.875 490.262 271.654 486.788 274.587C483.314 277.52 481.054 281.432 480.379 285.678C477.243 306.192 479.443 327.082 486.806 346.699L491.008 357.854L446.066 401.056L457.679 420.385Z" fill="#6C63FF"/>
<path d="M98.46 239.349C115.251 239.349 128.863 227.087 128.863 211.961C128.863 196.835 115.251 184.573 98.46 184.573C81.669 184.573 68.0572 196.835 68.0572 211.961C68.0572 227.087 81.669 239.349 98.46 239.349Z" fill="#A0616A"/>
<path d="M57.6133 420.565L57.4475 420.356C48.5911 409.186 61.9111 382.346 63.9201 378.455C61.5345 377.757 59.491 376.337 58.1377 374.434C56.7843 372.532 56.2048 370.266 56.4978 368.022L57.3639 361.391L58.2666 354.886L51.7995 349.06L51.7813 348.915L48.0596 319.579L42.6483 300.094C40.6094 292.728 40.7831 285.006 43.1517 277.721C45.5203 270.435 49.9985 263.849 56.1264 258.638L68.6345 256.849L83.8359 243.654H108.35L116.755 250.889C133.28 263.091 137.203 257.79 155.837 280.761L142.495 312.426L149.952 359.129L149.957 367.582L153.841 371.47C155.24 372.871 156.257 374.547 156.81 376.364C157.363 378.181 157.438 380.09 157.028 381.938L156.517 384.238C158.491 385 160.234 386.178 161.598 387.672C162.963 389.166 163.91 390.933 164.36 392.825L165.724 398.56C166.892 399.947 174.595 409.2 174.595 411.73C174.595 412.11 174.284 412.477 173.616 412.884C168.366 416.087 139.348 422.616 126.505 417.986C112.825 413.059 58.4438 420.451 57.8959 420.526L57.6133 420.565Z" fill="#3F3D56"/>
<path d="M42.1678 309.466L67.447 305.008C76.7958 317.585 81.8148 351.976 81.8148 351.976L109.764 404.191C111.482 405.131 112.892 406.464 113.852 408.055C114.812 409.646 115.286 411.438 115.227 413.248C115.168 415.058 114.577 416.821 113.515 418.359C112.454 419.896 110.958 421.153 109.182 422C107.406 422.848 105.412 423.256 103.404 423.184C101.395 423.111 99.4439 422.56 97.7486 421.587C96.0533 420.615 94.6745 419.254 93.7527 417.645C92.8308 416.036 92.3988 414.236 92.5006 412.427L56.048 350.562L42.1678 309.466Z" fill="#A0616A"/>
<path d="M42.0262 314.869L41.3075 281.022L53.2038 266.685C55.5506 263.878 58.7221 261.719 62.36 260.45C65.9979 259.182 69.957 258.855 73.7901 259.508C78.9794 260.423 83.5892 263.08 86.6873 266.94C89.7855 270.801 91.1408 275.577 90.4793 280.303C88.4601 294.635 83.8759 312.57 73.5045 316.628L73.3994 316.669L84.1484 350.534L44.2863 355.55L42.0262 314.869Z" fill="#3F3D56"/>
<path d="M192.163 311.878C192.163 311.878 161.826 290.517 145.372 287.448L130.809 306.589L170.194 328.332L246.874 348.305C248.217 349.648 249.93 350.647 251.84 351.201C253.751 351.755 255.789 351.844 257.75 351.459C259.711 351.074 261.523 350.228 263.004 349.007C264.484 347.787 265.58 346.235 266.179 344.51C266.779 342.785 266.861 340.948 266.418 339.185C265.974 337.422 265.021 335.796 263.654 334.472C262.287 333.148 260.556 332.174 258.636 331.647C256.717 331.121 254.676 331.062 252.723 331.476L192.163 311.878Z" fill="#A0616A"/>
<path d="M138.79 316.171L107.174 297.872L100.572 280.989C99.2896 277.67 99.0629 274.095 99.9178 270.666C100.773 267.237 102.675 264.092 105.41 261.587C109.142 258.212 114.158 256.241 119.443 256.071C124.727 255.9 129.886 257.544 133.877 260.67C145.971 270.157 161.557 273.337 159.527 283.358L165.35 284.124L195.126 304.495L177.567 337.12L138.79 316.171Z" fill="#3F3D56"/>
<path d="M63.9749 193.965C67.3887 189.207 73.7951 186.036 80.0057 186.927C80.5837 183.357 82.2381 179.998 84.7886 177.215C87.3392 174.433 90.6882 172.335 94.4709 171.149C98.2537 169.962 102.325 169.734 106.242 170.488C110.159 171.242 113.772 172.949 116.686 175.425C118.514 174.114 121.172 174.045 123.343 174.824C125.48 175.7 127.34 177.045 128.751 178.735C132.315 182.739 134.607 187.538 135.383 192.622C136.159 197.705 135.391 202.884 133.159 207.605C133.918 205.119 131.153 202.781 128.359 202.223C125.565 201.665 122.635 202.193 119.801 201.83C116.17 201.364 112.906 199.467 109.269 199.04C106.212 198.681 103.138 199.387 100.157 200.094C97.1767 200.802 94.1107 201.524 91.0497 201.196C87.9885 200.869 84.0454 211.319 84.0984 218.68C84.1084 220.075 83.7895 221.866 82.2762 222.161C80.4127 222.526 79.3328 220.209 77.5591 219.578C75.9788 219.015 74.0844 220.058 73.5341 221.506C73.3106 222.246 73.2867 223.025 73.4643 223.775C73.642 224.526 74.0161 225.227 74.5556 225.822C75.6459 226.999 76.9402 228.011 78.3885 228.817L77.658 229.364C76.4428 230.81 73.9223 230.873 72.1708 229.978C70.4195 229.084 69.2686 227.492 68.2311 225.937C64.9908 221.082 62.1484 215.909 61.0048 210.339C59.8613 204.768 60.5612 198.723 63.9749 193.965Z" fill="#2F2E41"/>
<path opacity="0.2" d="M330.971 239.991C334.055 251.566 335.478 263.449 335.205 275.349C334.942 287.251 333.01 299.075 329.454 310.54C327.448 317.014 324.916 323.348 321.881 329.488C321.335 330.592 323.146 331.556 323.697 330.444C329.176 319.379 333.051 307.724 335.225 295.767C337.408 283.807 337.898 271.646 336.682 259.575C335.994 252.808 334.763 246.095 332.998 239.488C332.682 238.304 330.654 238.805 330.971 239.991Z" fill="black"/>
<path opacity="0.2" d="M527.236 320.981L509.663 359.624C506.835 365.843 504.091 372.1 501.148 378.276C498.498 383.836 495.476 389.421 491.015 394.005C486.513 398.632 480.457 402.388 473.539 403.122C472.211 403.263 472.196 405.158 473.539 405.016C479.859 404.345 485.523 401.515 490.097 397.601C495.044 393.369 498.53 387.978 501.376 382.444C504.548 376.278 507.246 369.901 510.105 363.614L519.089 343.857L529.263 321.485C529.775 320.358 527.742 319.867 527.236 320.981Z" fill="black"/>
<path d="M318.936 356.056C319.245 356.866 319.831 357.566 320.609 358.058C321.387 358.549 322.319 358.805 323.269 358.79L341.832 358.359C342.789 358.343 343.715 358.047 344.47 357.517C345.225 356.987 345.77 356.252 346.023 355.42L348.65 330.116C349.582 330.496 350.596 330.684 351.619 330.665C352.508 330.645 353.384 330.467 354.196 330.143C355.009 329.818 355.742 329.352 356.355 328.771C356.968 328.191 357.447 327.508 357.767 326.76C358.086 326.013 358.239 325.216 358.217 324.416C358.195 323.615 357.998 322.826 357.637 322.094C357.276 321.362 356.759 320.701 356.115 320.149C355.471 319.598 354.712 319.165 353.882 318.877C353.053 318.59 352.168 318.452 351.28 318.472C350.871 318.471 350.463 318.509 350.063 318.586C349.628 318.162 349.1 317.825 348.511 317.596C347.923 317.368 347.288 317.253 346.648 317.259L318.093 317.923C317.856 317.931 317.621 317.957 317.389 318.002C316.763 318.107 316.169 318.331 315.647 318.661C315.125 318.99 314.688 319.416 314.365 319.91C314.041 320.405 313.839 320.956 313.771 321.526C313.704 322.097 313.773 322.674 313.974 323.218L318.936 356.056ZM349.188 328.397L351.058 322.367C351.27 321.671 351.275 320.936 351.072 320.237C351.163 320.237 351.243 320.198 351.333 320.198C352.615 320.174 353.855 320.609 354.781 321.408C355.707 322.206 356.244 323.303 356.274 324.457C356.304 325.612 355.825 326.73 354.941 327.566C354.058 328.403 352.842 328.89 351.56 328.92C350.731 328.943 349.911 328.763 349.188 328.397Z" fill="#2F2E41"/>
<path d="M317.389 318.002C317.997 321.135 324.837 323.338 333.061 322.955C340.624 322.641 346.807 320.249 347.94 317.414C347.521 317.302 347.085 317.25 346.648 317.259L318.093 317.923C317.856 317.931 317.621 317.957 317.389 318.002Z" fill="#3F3D56"/>
<path d="M257.107 321.956C257.308 321.412 257.377 320.835 257.309 320.264C257.242 319.694 257.04 319.142 256.716 318.648C256.393 318.154 255.955 317.728 255.434 317.399C254.912 317.069 254.318 316.844 253.692 316.739C253.46 316.695 253.224 316.668 252.987 316.661L224.433 315.996C223.792 315.991 223.158 316.106 222.569 316.334C221.981 316.563 221.453 316.9 221.018 317.324C220.618 317.247 220.21 317.209 219.801 317.21C218.006 317.169 216.267 317.773 214.966 318.887C213.665 320.002 212.909 321.536 212.864 323.153C212.819 324.77 213.488 326.337 214.726 327.509C215.963 328.681 217.667 329.362 219.461 329.403C220.484 329.421 221.499 329.234 222.431 328.853L225.058 354.158C225.311 354.989 225.855 355.725 226.611 356.255C227.366 356.785 228.292 357.08 229.249 357.097L247.812 357.528C248.762 357.543 249.693 357.287 250.472 356.795C251.25 356.304 251.836 355.603 252.145 354.794L257.107 321.956ZM219.521 327.658C218.239 327.628 217.023 327.141 216.139 326.304C215.256 325.468 214.776 324.35 214.806 323.195C214.836 322.041 215.373 320.944 216.3 320.145C217.226 319.347 218.466 318.912 219.747 318.936C219.838 318.936 219.918 318.975 220.009 318.975C219.805 319.674 219.81 320.409 220.023 321.105L221.892 327.135C221.169 327.5 220.349 327.681 219.521 327.658Z" fill="#2F2E41"/>
<path d="M253.692 316.739C253.083 319.873 246.244 322.075 238.02 321.693C230.457 321.379 224.274 318.986 223.141 316.151C223.56 316.04 223.996 315.987 224.433 315.996L252.987 316.66C253.224 316.668 253.46 316.695 253.692 316.739Z" fill="#3F3D56"/>
<path d="M226.631 261.772C228.061 260.83 229.704 260.183 231.442 259.875C233.18 259.567 234.972 259.606 236.692 259.99C238.412 260.374 240.017 261.092 241.395 262.095C242.773 263.098 243.89 264.361 244.668 265.795L287.421 261.136L277.434 279.177L238.366 280.835C235.605 281.853 232.526 281.922 229.712 281.031C226.899 280.139 224.545 278.349 223.099 275.999C221.652 273.649 221.213 270.903 221.864 268.281C222.515 265.659 224.211 263.343 226.631 261.772Z" fill="#9E616A"/>
<path d="M366.059 225.027C364.798 227.255 363.263 229.85 361.54 232.678C355.486 242.645 347.168 255.509 340.764 265.299C335.291 273.651 331.206 279.774 331.094 279.944L330.919 280.196L293.297 280.96L285.225 281.124L282.478 281.181L252.999 281.781L253.28 280.203L256.033 264.561L256.314 262.964L282.135 259.101L291.573 257.693L312.511 254.562L316.147 244.892C322.553 227.895 333.256 212.472 347.413 199.841C347.827 199.481 348.247 199.14 348.689 198.818C349.074 198.541 349.466 198.276 349.866 198.036C351.561 200.201 353.075 202.158 354.357 203.729L357.462 207.536C361.7 212.736 364.633 218.704 366.059 225.027Z" fill="#6C63FF"/>
<path d="M209.625 282.833C209.934 283.643 210.519 284.344 211.298 284.835C212.076 285.326 213.007 285.582 213.958 285.567L232.521 285.137C233.478 285.12 234.403 284.825 235.159 284.295C235.914 283.765 236.459 283.029 236.712 282.197L239.339 256.893C240.271 257.273 241.285 257.461 242.308 257.443C244.103 257.402 245.807 256.721 247.044 255.549C248.281 254.377 248.951 252.81 248.906 251.193C248.861 249.576 248.105 248.041 246.804 246.927C245.503 245.812 243.763 245.209 241.968 245.249C241.559 245.248 241.152 245.286 240.752 245.363C240.317 244.94 239.788 244.602 239.2 244.374C238.612 244.145 237.977 244.03 237.336 244.036L208.782 244.7C208.545 244.708 208.31 244.734 208.078 244.779C207.452 244.884 206.858 245.109 206.336 245.438C205.814 245.767 205.377 246.193 205.053 246.688C204.73 247.182 204.528 247.733 204.46 248.304C204.393 248.874 204.462 249.451 204.663 249.996L209.625 282.833ZM239.877 255.175L241.747 249.145C241.959 248.448 241.964 247.713 241.761 247.015C241.851 247.014 241.932 246.976 242.022 246.976C243.304 246.952 244.544 247.387 245.47 248.185C246.396 248.983 246.933 250.08 246.963 251.235C246.993 252.389 246.514 253.507 245.63 254.344C244.746 255.18 243.53 255.667 242.249 255.697C241.42 255.721 240.6 255.54 239.877 255.175Z" fill="#CCCCCC"/>
<path d="M208.078 244.779C208.686 247.913 215.526 250.115 223.75 249.733C231.312 249.419 237.496 247.026 238.629 244.191C238.21 244.08 237.774 244.027 237.337 244.036L208.782 244.7C208.545 244.708 208.31 244.735 208.078 244.779Z" fill="#3F3D56"/>
</g>
<defs>
<clipPath id="clip0_103_641">
<rect width="590" height="532" fill="white"/>
</clipPath>
</defs>
</svg>
