<svg width="526" height="420" viewBox="0 0 526 420" fill="none" xmlns="http://www.w3.org/2000/svg">
<g clip-path="url(#clip0_63_576)" filter="url(#filter0_d_63_576)">
<path d="M22.575 399.028C22.575 399.567 23.014 400 23.5607 400H515.014C515.561 400 516 399.567 516 399.028C516 398.488 515.561 398.055 515.014 398.055H23.5607C23.014 398.055 22.575 398.488 22.575 399.028Z" fill="#2F2E43"/>
<path d="M277.421 303.078C276.071 311.145 268.954 317.319 260.398 317.319C251.842 317.319 244.725 311.145 243.375 303.078H199.823V396.168H320.972V303.078L277.421 303.078Z" fill="#B6B3C5"/>
<path d="M213.911 395.821H201.937V397.905H213.911V395.821Z" fill="#B6B3C5"/>
<path d="M319.916 396.168H307.942V398.252H319.916V396.168Z" fill="#B6B3C5"/>
<path d="M504.042 305.509H16.754C13.0298 305.509 10 302.521 10 298.848V24.564C10 20.891 13.0298 17.9026 16.754 17.9026H504.042C507.766 17.9026 510.796 20.891 510.796 24.564V298.848C510.796 302.521 507.766 305.509 504.042 305.509Z" fill="#2F2E41"/>
<path d="M499.174 29.7126H22.3262V295.089H499.174V29.7126Z" fill="white"/>
<path d="M442.523 131.628H416.503C414.242 131.628 412.403 129.814 412.403 127.584C412.403 125.353 414.242 123.539 416.503 123.539H442.523C444.783 123.539 446.623 125.353 446.623 127.584C446.623 129.814 444.783 131.628 442.523 131.628Z" fill="#D1D1D2"/>
<path d="M472.445 131.628H460.303C458.042 131.628 456.202 129.814 456.202 127.584C456.202 125.353 458.042 123.539 460.303 123.539H472.445C474.706 123.539 476.545 125.353 476.545 127.584C476.545 129.814 474.706 131.628 472.445 131.628Z" fill="#D1D1D2"/>
<path d="M182.013 134.716H102.816C98.7728 134.716 95.4836 131.472 95.4836 127.485C95.4836 123.497 98.7728 120.253 102.816 120.253H182.013C186.056 120.253 189.345 123.497 189.345 127.485C189.345 131.472 186.056 134.716 182.013 134.716Z" fill="#6C63FF"/>
<path d="M139.075 154.009H100.907C98.443 154.009 96.438 152.031 96.438 149.601C96.438 147.17 98.443 145.193 100.907 145.193H139.075C141.539 145.193 143.544 147.17 143.544 149.601C143.544 152.031 141.539 154.009 139.075 154.009Z" fill="#D1D1D2"/>
<path d="M349.473 171.42H99.9531C97.4887 171.42 95.4836 169.442 95.4836 167.012C95.4836 164.581 97.4887 162.603 99.9531 162.603H349.473C351.938 162.603 353.943 164.581 353.943 167.012C353.943 169.442 351.938 171.42 349.473 171.42Z" fill="#D1D1D2"/>
<path d="M328.004 183.184H99.9531C97.4887 183.184 95.4836 181.206 95.4836 178.775C95.4836 176.345 97.4887 174.367 99.9531 174.367H328.004C330.468 174.367 332.474 176.345 332.474 178.775C332.474 181.206 330.468 183.184 328.004 183.184Z" fill="#D1D1D2"/>
<path d="M471.699 352.993L460.253 364.847L448.055 353.724L459.501 341.871L471.699 352.993Z" fill="#ED9DA0"/>
<path d="M480.842 365.133L456.512 390.33C454.432 392.484 451.835 394.186 449.001 395.251L442.217 397.801C440.815 398.328 439.2 398.023 438.103 397.023C436.817 395.85 436.492 393.972 437.312 392.455L443.836 380.383L450.799 355.903L450.875 355.949C452.769 357.1 455.641 358.826 455.846 358.899C459.452 359.025 462.033 358.13 463.518 356.241C466.11 352.946 464.466 347.686 464.449 347.633L464.436 347.593L464.469 347.565C465.224 346.929 466.02 346.674 466.834 346.808C468.561 347.093 469.797 349.007 469.978 349.302C471.6 349.234 476.578 353.08 476.979 353.391C479.423 353.385 481.214 353.957 482.304 355.091C483.256 356.082 483.671 357.489 483.537 359.273C483.375 361.42 482.418 363.501 480.842 365.133Z" fill="#090814"/>
<path d="M458.485 366.641H441.758V382.895H458.485V366.641Z" fill="#ED9DA0"/>
<path d="M455.63 397.681H420.073C417.034 397.681 413.98 397.005 411.241 395.726L404.686 392.664C403.33 392.031 402.455 390.677 402.455 389.216C402.455 387.502 403.642 385.986 405.341 385.529L418.865 381.893L442 370.076L442.017 370.161C442.45 372.29 443.12 375.507 443.206 375.702C445.578 378.344 448.015 379.561 450.45 379.321C454.696 378.902 457.518 374.138 457.546 374.09L457.568 374.053L457.611 374.057C458.605 374.157 459.341 374.547 459.797 375.216C460.766 376.635 460.175 378.821 460.078 379.15C461.238 380.253 461.758 386.412 461.798 386.909C463.476 388.637 464.273 390.298 464.167 391.846C464.075 393.199 463.303 394.456 461.872 395.581C460.15 396.935 457.934 397.681 455.63 397.681Z" fill="#090814"/>
<path d="M460.471 161.923L401.197 161.951L381.439 283.52L440.713 353.004L460.471 335.633L413.628 283.52L460.471 161.923Z" fill="#090814"/>
<path d="M425.437 179.843L460.471 161.923V370.375L440.713 370.91L425.437 179.843Z" fill="#090814"/>
<path d="M390.344 210.673L390.761 191.697L379.528 191.457L379.111 210.432C377.015 212.351 375.631 215.333 375.557 218.714C375.427 224.629 379.345 229.51 384.308 229.616C389.271 229.722 393.4 225.013 393.53 219.098C393.604 215.718 392.353 212.68 390.344 210.673Z" fill="#ED9DA0"/>
<path d="M443.612 25.3529C443.612 25.3529 459.737 25.3185 453.713 9.99422C447.689 -5.33004 436.473 1.53147 436.473 1.53147C436.473 1.53147 431.746 3.99376 432.721 9.4874" fill="#090814"/>
<path d="M445.226 32.7034C445.226 20.9542 435.569 11.4296 423.656 11.4296C411.744 11.4296 402.087 20.9542 402.087 32.7034C402.087 42.232 408.439 50.2965 417.194 53.0049L421.364 80.1843L442.621 62.713C442.621 62.713 438.028 56.944 435.566 50.439C441.386 46.6291 445.226 40.1097 445.226 32.7034Z" fill="#ED9DA0"/>
<path d="M434.019 50.6747C434.019 50.6747 436.884 39.8434 432.2 34.8632C427.527 29.8942 426.923 37.6257 426.923 37.6257L423.552 36.9027C423.552 36.9027 424.138 29.384 417.541 28.0827L421.793 19.118C421.793 19.118 405.516 22.2351 405.067 20.6802C401.537 8.44606 435.213 -2.00479 444.516 16.66C458.984 45.6899 434.019 50.6747 434.019 50.6747Z" fill="#090814"/>
<path d="M414.967 69.6269C399.308 72.6449 387.554 85.5046 386.129 101.179L376.382 208.37H393.486L414.967 69.6269Z" fill="#6C63FF"/>
<path d="M398.794 155.03L396.13 185.296L468.441 164.32L459.63 142.445L476.036 105.287L442.545 57.9401L415.808 59.7381L405.478 72.9232" fill="#6C63FF"/>
<path d="M457.763 183.774L467.849 167.609L458.279 161.801L448.194 177.966C445.402 178.576 442.68 180.459 440.883 183.339C437.739 188.378 438.618 194.543 442.846 197.109C447.074 199.675 453.05 197.671 456.194 192.632C457.991 189.752 458.468 186.507 457.763 183.774Z" fill="#ED9DA0"/>
<path d="M437.076 58.5394L442.907 58.3009L452.875 65.7313C464.687 67.718 468.113 68.275 471.732 75.9705C473.253 79.2042 474.261 82.6491 474.824 86.1701L483.258 138.849L462.06 189.192L448.014 173.609L463.03 134.25L460.535 124.835" fill="#6C63FF"/>
</g>
<defs>
<filter id="filter0_d_63_576" x="0" y="0" width="526" height="420" filterUnits="userSpaceOnUse" color-interpolation-filters="sRGB">
<feFlood flood-opacity="0" result="BackgroundImageFix"/>
<feColorMatrix in="SourceAlpha" type="matrix" values="0 0 0 0 0 0 0 0 0 0 0 0 0 0 0 0 0 0 127 0" result="hardAlpha"/>
<feOffset dy="10"/>
<feGaussianBlur stdDeviation="5"/>
<feComposite in2="hardAlpha" operator="out"/>
<feColorMatrix type="matrix" values="0 0 0 0 0 0 0 0 0 0 0 0 0 0 0 0 0 0 0.25 0"/>
<feBlend mode="normal" in2="BackgroundImageFix" result="effect1_dropShadow_63_576"/>
<feBlend mode="normal" in="SourceGraphic" in2="effect1_dropShadow_63_576" result="shape"/>
</filter>
<clipPath id="clip0_63_576">
<rect width="506" height="400" fill="white" transform="translate(10)"/>
</clipPath>
</defs>
</svg>
