<svg width="19" height="25" viewBox="0 0 19 25" fill="none" xmlns="http://www.w3.org/2000/svg">
<path d="M7.98906 1.45996L8.73906 0.419922C8.92656 0.15625 9.22656 0 9.54062 0C10.0891 0 10.5391 0.46875 10.5391 1.04004V2.12402C10.5391 2.76367 10.7922 3.37891 11.2375 3.81836L15.2078 7.76367C17.4953 10.0391 18.7891 13.1934 18.7891 16.4893C18.7891 21.1914 15.1328 25 10.6187 25H9.78906C4.82031 25 0.789062 20.8008 0.789062 15.625V15.4395C0.789062 13.0566 1.69844 10.7715 3.31563 9.08691L3.47969 8.91602C3.67656 8.71094 3.94844 8.59375 4.22969 8.59375C4.81563 8.59375 5.28906 9.08691 5.28906 9.69727V14.0625C5.28906 15.7861 6.63438 17.1875 8.28906 17.1875C9.94375 17.1875 11.2891 15.7861 11.2891 14.0625V13.8721C11.2891 12.9932 10.9516 12.1484 10.3563 11.5283L8.54688 9.64355C7.42188 8.47168 6.78906 6.875 6.78906 5.21484C6.78906 3.8623 7.21094 2.53906 7.98906 1.45996Z" fill="white"/>
</svg>
