<svg width="27" height="20" viewBox="0 0 27 20" fill="none" xmlns="http://www.w3.org/2000/svg">
<path d="M13.6434 1.54906L9.55969 5.4286C8.88047 6.07189 8.74969 7.22981 9.26438 8.0562C9.80859 8.93701 10.8675 9.1102 11.5973 8.44217L15.7866 4.62201C16.0819 4.3548 16.5038 4.41418 16.7358 4.76057C16.9678 5.10695 16.913 5.60179 16.6177 5.87395L15.7359 6.67559L21.6 13.0095V3.66697H21.5705L21.4059 3.54326L18.3431 1.24226C17.6977 0.757316 16.9425 0.5 16.1747 0.5C15.255 0.5 14.3606 0.871129 13.6434 1.54906ZM14.6053 7.70486L12.4242 9.69411C11.0953 10.9114 9.16734 10.5947 8.17172 8.99144C7.23516 7.48218 7.47141 5.37417 8.7075 4.2014L12.2175 0.871129C11.7281 0.628658 11.2008 0.504948 10.665 0.504948C9.87188 0.5 9.09984 0.77711 8.4375 1.29174L5.4 3.66697V14.7514H6.58969L10.4456 18.8783C11.2725 19.7641 12.5508 19.6948 13.3059 18.7249C13.538 18.4231 13.6941 18.0717 13.7742 17.7056L14.4914 18.4775C15.3141 19.3633 16.5966 19.2989 17.3517 18.334C17.5416 18.0915 17.6808 17.8095 17.7694 17.5175C18.5878 18.1608 19.7016 18.0272 20.3892 17.1464C21.1444 16.1815 21.0895 14.6771 20.2669 13.7914L14.6053 7.70486ZM0.675 3.66697C0.30375 3.66697 0 4.02326 0 4.45871V14.7514C0 15.6272 0.603281 16.3349 1.35 16.3349H2.7C3.44672 16.3349 4.05 15.6272 4.05 14.7514V3.66697H0.675ZM2.025 13.1679C2.20402 13.1679 2.37571 13.2513 2.5023 13.3998C2.62888 13.5483 2.7 13.7496 2.7 13.9596C2.7 14.1696 2.62888 14.371 2.5023 14.5195C2.37571 14.668 2.20402 14.7514 2.025 14.7514C1.84598 14.7514 1.67429 14.668 1.5477 14.5195C1.42112 14.371 1.35 14.1696 1.35 13.9596C1.35 13.7496 1.42112 13.5483 1.5477 13.3998C1.67429 13.2513 1.84598 13.1679 2.025 13.1679ZM22.95 3.66697V14.7514C22.95 15.6272 23.5533 16.3349 24.3 16.3349H25.65C26.3967 16.3349 27 15.6272 27 14.7514V4.45871C27 4.02326 26.6963 3.66697 26.325 3.66697H22.95ZM24.3 13.9596C24.3 13.7496 24.3711 13.5483 24.4977 13.3998C24.6243 13.2513 24.796 13.1679 24.975 13.1679C25.154 13.1679 25.3257 13.2513 25.4523 13.3998C25.5789 13.5483 25.65 13.7496 25.65 13.9596C25.65 14.1696 25.5789 14.371 25.4523 14.5195C25.3257 14.668 25.154 14.7514 24.975 14.7514C24.796 14.7514 24.6243 14.668 24.4977 14.5195C24.3711 14.371 24.3 14.1696 24.3 13.9596Z" fill="white"/>
</svg>
