<svg width="107" height="78" viewBox="0 0 107 78" fill="none" xmlns="http://www.w3.org/2000/svg">
<g clip-path="url(#clip0_17_315)">
<path d="M17.3827 36.3212C18.949 36.3212 20.2188 34.8919 20.2188 33.1288C20.2188 31.3656 18.949 29.9363 17.3827 29.9363C15.8163 29.9363 14.5465 31.3656 14.5465 33.1288C14.5465 34.8919 15.8163 36.3212 17.3827 36.3212Z" fill="#FFB8B8"/>
<path d="M7.79944 71.3854L8.51757 72.7588L13.5651 70.2944L12.5052 68.2676L7.79944 71.3854Z" fill="#FFB8B8"/>
<path d="M8.01459 70.7714L9.42884 73.4759C9.54719 73.7022 9.62483 73.9527 9.65723 74.2128C9.68962 74.4729 9.67619 74.7376 9.61769 74.9919C9.55919 75.2461 9.45678 75.4849 9.31629 75.6946C9.17581 75.9043 9.00001 76.0808 8.79893 76.214L8.74917 76.247L6.43365 71.8189L8.01459 70.7714Z" fill="#2F2E41"/>
<path d="M16.12 76.333L17.5357 76.3328L18.2092 70.1863L16.1198 70.1864L16.12 76.333Z" fill="#FFB8B8"/>
<path d="M15.759 75.8127L18.5469 75.8126C18.7803 75.8126 19.0114 75.8643 19.227 75.9648C19.4425 76.0653 19.6384 76.2127 19.8034 76.3984C19.9684 76.5841 20.0992 76.8045 20.1885 77.0472C20.2778 77.2898 20.3238 77.5499 20.3238 77.8125V77.8775L15.7591 77.8777L15.759 75.8127Z" fill="#2F2E41"/>
<path d="M10.4286 72.6089C10.3471 72.609 10.2668 72.5875 10.1941 72.5461C10.1214 72.5047 10.0583 72.4446 10.0101 72.3707L8.64478 70.2834C8.60313 70.2197 8.57338 70.1472 8.55733 70.0702C8.54127 69.9932 8.53926 69.9134 8.55139 69.8355C8.56353 69.7576 8.58957 69.6833 8.62794 69.6171C8.66631 69.5508 8.71621 69.4941 8.77463 69.4502L14.8501 64.8824L11.1843 54.0322L19.0236 54.7604L19.2877 64.0845C19.3125 64.9336 19.1317 65.7744 18.7646 66.5167C18.3976 67.2591 17.8581 67.8752 17.2039 68.299L10.6882 72.5304C10.6093 72.5818 10.5198 72.6089 10.4286 72.6089Z" fill="#2F2E41"/>
<path d="M16.1628 75.0851C16.0284 75.0848 15.8992 75.0259 15.8026 74.9207C15.7059 74.8155 15.6493 74.6722 15.6445 74.521L15.3572 65.4376L18.9147 65.2267L18.6314 74.3753C18.6273 74.5202 18.5753 74.6582 18.4856 74.7623C18.396 74.8665 18.2751 74.9293 18.1465 74.9385L16.1981 75.0838C16.1863 75.0847 16.1745 75.0851 16.1628 75.0851Z" fill="#2F2E41"/>
<path d="M19.9309 56.5643C19.0258 56.5643 15.8643 55.4183 14.7668 55.0098C14.6026 55.1577 13.7006 55.9169 12.6477 55.7781C11.9981 55.6923 11.4261 55.2784 10.9478 54.5478C9.89161 52.9342 11.1962 46.0143 12.4766 40.4934C12.7333 39.3774 13.3643 38.4169 14.2371 37.8139C15.1099 37.2108 16.1563 37.012 17.1566 37.2595C17.8815 37.4396 18.5475 37.8437 19.0796 38.4264C19.6118 39.0092 19.989 39.7474 20.169 40.5581C20.4101 41.6627 20.2027 42.962 20.0513 43.9109C19.9801 44.3569 19.9238 44.7093 19.9431 44.8824C20.0174 45.5516 20.4302 56.0467 20.1648 56.4949C20.1365 56.5427 20.0547 56.5643 19.9309 56.5643Z" fill="#6C63FF"/>
<path d="M16.6197 56.5828C16.7652 56.4609 16.8851 56.3046 16.9711 56.1248C17.0571 55.9451 17.107 55.7463 17.1174 55.5425C17.1278 55.3387 17.0983 55.1349 17.0311 54.9453C16.9639 54.7557 16.8606 54.5849 16.7284 54.4452L16.7845 41.7273L14.1234 42.2261L14.9051 54.5705C14.7112 54.836 14.6105 55.1723 14.6222 55.5157C14.6338 55.8592 14.757 56.1859 14.9684 56.4339C15.1797 56.6819 15.4645 56.8341 15.7689 56.8615C16.0732 56.889 16.376 56.7898 16.6197 56.5828Z" fill="#FFB8B8"/>
<path d="M17.2351 49.8948H14.3689C14.232 49.8943 14.1008 49.8333 14.0036 49.7248C13.9063 49.6164 13.8509 49.4692 13.8493 49.3152L13.7789 40.5685C13.7765 40.266 13.8273 39.966 13.9285 39.6859C14.0297 39.4057 14.1793 39.1509 14.3685 38.9362C14.5578 38.7215 14.783 38.5511 15.0311 38.435C15.2792 38.3189 15.5453 38.2593 15.814 38.2596C16.0827 38.26 16.3486 38.3203 16.5965 38.4371C16.8443 38.554 17.0691 38.7249 17.2579 38.9401C17.4467 39.1554 17.5957 39.4106 17.6963 39.691C17.7969 39.9715 17.8471 40.2716 17.844 40.574L17.7547 49.3166C17.7527 49.4704 17.6971 49.6171 17.6 49.7252C17.5028 49.8334 17.3718 49.8943 17.2351 49.8948Z" fill="#6C63FF"/>
<path d="M16.6605 36.3079C15.3619 36.3106 14.1369 35.1553 13.9119 33.7157C13.8313 33.1501 13.8676 32.5713 14.018 32.0241C14.1813 31.4012 14.4613 30.825 14.8392 30.3342C15.2171 29.8435 15.6841 29.4496 16.2086 29.1792C16.7332 28.9088 17.3032 28.7681 17.8801 28.7666C18.4571 28.7651 19.0276 28.9029 19.5533 29.1707C19.9007 29.3476 20.2428 29.6018 20.4019 29.9918C20.5609 30.3819 20.4614 30.9271 20.1134 31.1026C19.886 31.2173 19.6007 31.161 19.399 31.3256C19.1092 31.5621 19.1838 32.0654 19.3132 32.441C19.4426 32.8166 19.5889 33.2712 19.372 33.5916C19.1699 33.8903 18.7659 33.881 18.4477 33.7686C18.1295 33.6562 17.8155 33.468 17.4837 33.5063C16.9998 33.5621 16.6521 34.1039 16.5877 34.6466C16.5234 35.1893 16.6749 35.7318 16.8245 36.2528L16.6605 36.3079Z" fill="#2F2E41"/>
<path d="M29.9076 78H0.115473C0.0848478 78 0.0554767 77.9863 0.0338212 77.9619C0.0121658 77.9375 0 77.9044 0 77.87C0 77.8355 0.0121658 77.8024 0.0338212 77.7781C0.0554767 77.7537 0.0848478 77.74 0.115473 77.74H29.9076C29.9382 77.74 29.9676 77.7537 29.9892 77.7781C30.0109 77.8024 30.023 77.8355 30.023 77.87C30.023 77.9044 30.0109 77.9375 29.9892 77.9619C29.9676 77.9863 29.9382 78 29.9076 78Z" fill="#CCCCCC"/>
<path d="M105.095 56.4832H31.095C30.5899 56.4826 30.1056 56.2564 29.7484 55.8543C29.3912 55.4523 29.1903 54.9071 29.1897 54.3385V2.97581C29.1901 2.55924 29.3373 2.15986 29.599 1.86529C29.8607 1.57072 30.2154 1.40502 30.5855 1.40454H105.58C105.956 1.40502 106.317 1.57358 106.584 1.87325C106.85 2.17291 107 2.57919 107 3.00297V54.3385C106.999 54.9071 106.799 55.4523 106.441 55.8543C106.084 56.2564 105.6 56.4826 105.095 56.4832Z" fill="#F2F2F2"/>
<path d="M102.702 53.7754H33.7363C32.7254 53.7754 31.9029 52.9085 31.9029 51.8429V7.11554C31.9029 6.32524 32.5124 5.68225 33.2615 5.68225H103.154C103.916 5.68225 104.536 6.33584 104.536 7.13915V51.8429C104.536 52.9085 103.713 53.7754 102.702 53.7754Z" fill="white"/>
<path d="M106.973 3.24306H29.163V2.15117C29.1637 1.58067 29.3654 1.03379 29.7239 0.630505C30.0824 0.227223 30.5684 0.000473051 31.0752 0H105.061C105.568 0.00046824 106.054 0.227216 106.413 0.630499C106.771 1.03378 106.973 1.58066 106.973 2.15117V3.24306Z" fill="#3F3D56"/>
<path d="M32.6382 2.18152C32.9113 2.18152 33.1328 1.93225 33.1328 1.62476C33.1328 1.31727 32.9113 1.06799 32.6382 1.06799C32.365 1.06799 32.1436 1.31727 32.1436 1.62476C32.1436 1.93225 32.365 2.18152 32.6382 2.18152Z" fill="white"/>
<path d="M34.5156 2.18152C34.7888 2.18152 35.0102 1.93225 35.0102 1.62476C35.0102 1.31727 34.7888 1.06799 34.5156 1.06799C34.2424 1.06799 34.021 1.31727 34.021 1.62476C34.021 1.93225 34.2424 2.18152 34.5156 2.18152Z" fill="white"/>
<path d="M36.3931 2.18152C36.6662 2.18152 36.8877 1.93225 36.8877 1.62476C36.8877 1.31727 36.6662 1.06799 36.3931 1.06799C36.1199 1.06799 35.8984 1.31727 35.8984 1.62476C35.8984 1.93225 36.1199 2.18152 36.3931 2.18152Z" fill="white"/>
<path d="M66.5831 15.4618H53.0949C52.8938 15.4618 52.7009 15.3719 52.5587 15.2119C52.4166 15.0518 52.3367 14.8347 52.3367 14.6084C52.3367 14.382 52.4166 14.1649 52.5587 14.0049C52.7009 13.8448 52.8938 13.7549 53.0949 13.7549H66.5831C66.7842 13.7549 66.977 13.8448 67.1192 14.0049C67.2614 14.1649 67.3413 14.382 67.3413 14.6084C67.3413 14.8347 67.2614 15.0518 67.1192 15.2119C66.977 15.3719 66.7842 15.4618 66.5831 15.4618Z" fill="#CCCCCC"/>
<path d="M83.3436 15.4618H69.8554C69.6543 15.4618 69.4614 15.3719 69.3192 15.2119C69.177 15.0518 69.0972 14.8347 69.0972 14.6084C69.0972 14.382 69.177 14.1649 69.3192 14.0049C69.4614 13.8448 69.6543 13.7549 69.8554 13.7549H83.3436C83.5447 13.7549 83.7375 13.8448 83.8797 14.0049C84.0219 14.1649 84.1018 14.382 84.1018 14.6084C84.1018 14.8347 84.0219 15.0518 83.8797 15.2119C83.7375 15.3719 83.5447 15.4618 83.3436 15.4618Z" fill="#CCCCCC"/>
<path d="M83.3436 18.6961H59.8789C59.6778 18.6961 59.4849 18.6062 59.3427 18.4461C59.2005 18.2861 59.1207 18.069 59.1207 17.8426C59.1207 17.6163 59.2005 17.3992 59.3427 17.2391C59.4849 17.0791 59.6778 16.9891 59.8789 16.9891H83.3436C83.5447 16.9891 83.7375 17.0791 83.8797 17.2391C84.0219 17.3992 84.1018 17.6163 84.1018 17.8426C84.1018 18.069 84.0219 18.2861 83.8797 18.4461C83.7375 18.6062 83.5447 18.6961 83.3436 18.6961Z" fill="#CCCCCC"/>
<path d="M66.5831 12.1828H53.0949C52.8939 12.1825 52.7013 12.0925 52.5593 11.9324C52.4173 11.7724 52.3376 11.5555 52.3376 11.3293C52.3376 11.1031 52.4173 10.8862 52.5593 10.7262C52.7013 10.5662 52.8939 10.4761 53.0949 10.4758H66.5831C66.6827 10.4757 66.7814 10.4977 66.8735 10.5405C66.9656 10.5833 67.0493 10.6462 67.1198 10.7254C67.1903 10.8047 67.2463 10.8988 67.2844 11.0025C67.3226 11.1061 67.3422 11.2171 67.3422 11.3293C67.3422 11.4415 67.3226 11.5525 67.2844 11.6562C67.2463 11.7598 67.1903 11.8539 67.1198 11.9332C67.0493 12.0124 66.9656 12.0753 66.8735 12.1181C66.7814 12.1609 66.6827 12.1829 66.5831 12.1828Z" fill="#CCCCCC"/>
<path d="M74.0056 12.2277H70.1746C69.9735 12.2277 69.7806 12.1378 69.6385 11.9777C69.4963 11.8177 69.4164 11.6006 69.4164 11.3742C69.4164 11.1479 69.4963 10.9308 69.6385 10.7707C69.7806 10.6107 69.9735 10.5208 70.1746 10.5208H74.0056C74.2067 10.5208 74.3995 10.6107 74.5417 10.7707C74.6839 10.9308 74.7638 11.1479 74.7638 11.3742C74.7638 11.6006 74.6839 11.8177 74.5417 11.9777C74.3995 12.1378 74.2067 12.2277 74.0056 12.2277Z" fill="#CCCCCC"/>
<path d="M56.9258 18.6961H53.0949C52.8939 18.6958 52.7013 18.6058 52.5593 18.4457C52.4173 18.2857 52.3376 18.0688 52.3376 17.8426C52.3376 17.6164 52.4173 17.3995 52.5593 17.2395C52.7013 17.0795 52.8939 16.9894 53.0949 16.9891H56.9258C57.0255 16.989 57.1242 17.011 57.2163 17.0538C57.3084 17.0966 57.3921 17.1595 57.4626 17.2387C57.5331 17.318 57.589 17.4121 57.6272 17.5158C57.6653 17.6194 57.685 17.7304 57.685 17.8426C57.685 17.9548 57.6653 18.0658 57.6272 18.1695C57.589 18.2731 57.5331 18.3672 57.4626 18.4465C57.3921 18.5257 57.3084 18.5886 57.2163 18.6314C57.1242 18.6743 57.0255 18.6962 56.9258 18.6961Z" fill="#CCCCCC"/>
<path d="M66.5831 45.7476H53.0949C52.8938 45.7476 52.7009 45.6577 52.5587 45.4976C52.4166 45.3376 52.3367 45.1205 52.3367 44.8941C52.3367 44.6678 52.4166 44.4507 52.5587 44.2906C52.7009 44.1306 52.8938 44.0406 53.0949 44.0406H66.5831C66.6827 44.0406 66.7813 44.0627 66.8733 44.1056C66.9652 44.1485 67.0488 44.2114 67.1192 44.2906C67.1896 44.3699 67.2455 44.464 67.2836 44.5675C67.3217 44.6711 67.3413 44.782 67.3413 44.8941C67.3413 45.0062 67.3217 45.1172 67.2836 45.2207C67.2455 45.3243 67.1896 45.4184 67.1192 45.4976C67.0488 45.5769 66.9652 45.6397 66.8733 45.6826C66.7813 45.7255 66.6827 45.7476 66.5831 45.7476Z" fill="#CCCCCC"/>
<path d="M83.3436 45.7476H69.8554C69.6543 45.7476 69.4614 45.6577 69.3192 45.4976C69.177 45.3376 69.0972 45.1205 69.0972 44.8941C69.0972 44.6678 69.177 44.4507 69.3192 44.2906C69.4614 44.1306 69.6543 44.0406 69.8554 44.0406H83.3436C83.4432 44.0406 83.5418 44.0627 83.6337 44.1056C83.7257 44.1485 83.8093 44.2114 83.8797 44.2906C83.9501 44.3699 84.006 44.464 84.0441 44.5675C84.0822 44.6711 84.1018 44.782 84.1018 44.8941C84.1018 45.0062 84.0822 45.1172 84.0441 45.2207C84.006 45.3243 83.9501 45.4184 83.8797 45.4976C83.8093 45.5769 83.7257 45.6397 83.6337 45.6826C83.5418 45.7255 83.4432 45.7476 83.3436 45.7476Z" fill="#CCCCCC"/>
<path d="M83.3436 48.9819H59.8789C59.6778 48.9819 59.4849 48.8919 59.3427 48.7319C59.2005 48.5718 59.1207 48.3547 59.1207 48.1284C59.1207 47.902 59.2005 47.6849 59.3427 47.5249C59.4849 47.3648 59.6778 47.2749 59.8789 47.2749H83.3436C83.4432 47.2748 83.5419 47.2967 83.634 47.3396C83.7261 47.3824 83.8098 47.4452 83.8803 47.5245C83.9508 47.6038 84.0068 47.6979 84.0449 47.8015C84.0831 47.9051 84.1027 48.0162 84.1027 48.1284C84.1027 48.2405 84.0831 48.3516 84.0449 48.4552C84.0068 48.5589 83.9508 48.653 83.8803 48.7323C83.8098 48.8115 83.7261 48.8744 83.634 48.9172C83.5419 48.96 83.4432 48.982 83.3436 48.9819Z" fill="#CCCCCC"/>
<path d="M66.5831 42.4684H53.0949C52.8938 42.4684 52.7009 42.3785 52.5587 42.2185C52.4166 42.0584 52.3367 41.8413 52.3367 41.615C52.3367 41.3886 52.4166 41.1715 52.5587 41.0115C52.7009 40.8514 52.8938 40.7615 53.0949 40.7615H66.5831C66.7842 40.7615 66.977 40.8514 67.1192 41.0115C67.2614 41.1715 67.3413 41.3886 67.3413 41.615C67.3413 41.8413 67.2614 42.0584 67.1192 42.2185C66.977 42.3785 66.7842 42.4684 66.5831 42.4684Z" fill="#CCCCCC"/>
<path d="M74.0056 42.5134H70.1746C69.9735 42.5134 69.7806 42.4234 69.6385 42.2634C69.4963 42.1033 69.4164 41.8862 69.4164 41.6599C69.4164 41.4335 69.4963 41.2164 69.6385 41.0564C69.7806 40.8963 69.9735 40.8064 70.1746 40.8064H74.0056C74.2067 40.8064 74.3995 40.8963 74.5417 41.0564C74.6839 41.2164 74.7638 41.4335 74.7638 41.6599C74.7638 41.8862 74.6839 42.1033 74.5417 42.2634C74.3995 42.4234 74.2067 42.5134 74.0056 42.5134Z" fill="#CCCCCC"/>
<path d="M56.9258 48.9819H53.0949C52.8938 48.9819 52.7009 48.8919 52.5587 48.7319C52.4166 48.5718 52.3367 48.3547 52.3367 48.1284C52.3367 47.902 52.4166 47.6849 52.5587 47.5249C52.7009 47.3648 52.8938 47.2749 53.0949 47.2749H56.9258C57.0255 47.2748 57.1242 47.2967 57.2163 47.3396C57.3084 47.3824 57.3921 47.4452 57.4626 47.5245C57.5331 47.6038 57.589 47.6979 57.6272 47.8015C57.6654 47.9051 57.685 48.0162 57.685 48.1284C57.685 48.2405 57.6654 48.3516 57.6272 48.4552C57.589 48.5589 57.5331 48.653 57.4626 48.7323C57.3921 48.8115 57.3084 48.8744 57.2163 48.9172C57.1242 48.96 57.0255 48.982 56.9258 48.9819Z" fill="#CCCCCC"/>
<path d="M63.0604 36.5848C62.7741 36.5856 62.4992 36.4589 62.2955 36.2326L57.2252 30.5966C57.1257 30.486 57.0467 30.3542 56.9927 30.2089C56.9388 30.0636 56.911 29.9077 56.911 29.7503C56.911 29.5928 56.9388 29.4369 56.9927 29.2916C57.0467 29.1463 57.1257 29.0145 57.2252 28.9039L62.275 23.2907C62.4854 23.058 62.7688 22.928 63.0638 22.9291C63.3587 22.9301 63.6414 23.0621 63.8505 23.2963C64.0598 23.5324 64.1773 23.8523 64.1773 24.1858C64.1773 24.5193 64.0598 24.8392 63.8505 25.0753L60.0981 29.2993C59.9812 29.4312 59.9155 29.6099 59.9155 29.7962C59.9155 29.9825 59.9812 30.1613 60.0981 30.2932L63.8301 34.4942C63.9826 34.6654 64.0864 34.8837 64.1285 35.1214C64.1706 35.3591 64.149 35.6055 64.0666 35.8294C63.9841 36.0533 63.8445 36.2446 63.6654 36.3791C63.4862 36.5136 63.2757 36.5852 63.0604 36.5848Z" fill="#6C63FF"/>
<path d="M71.1395 36.5848C70.9242 36.5852 70.7136 36.5136 70.5345 36.3791C70.3554 36.2446 70.2157 36.0533 70.1333 35.8294C70.0508 35.6055 70.0293 35.3591 70.0714 35.1214C70.1135 34.8837 70.2173 34.6654 70.3697 34.4942L74.1018 30.2932C74.2187 30.1613 74.2843 29.9825 74.2843 29.7962C74.2843 29.6099 74.2187 29.4312 74.1018 29.2993L70.3494 25.0753C70.2456 24.9585 70.1633 24.8198 70.1071 24.6672C70.0509 24.5146 70.022 24.351 70.022 24.1858C70.022 24.0206 70.0509 23.857 70.1071 23.7044C70.1633 23.5518 70.2456 23.4131 70.3494 23.2963C70.5584 23.0621 70.8411 22.9301 71.1361 22.9291C71.431 22.928 71.7145 23.058 71.9248 23.2907L76.9746 28.9039C77.0742 29.0145 77.1532 29.1463 77.2071 29.2916C77.2611 29.4369 77.2889 29.5928 77.2889 29.7503C77.2889 29.9077 77.2611 30.0636 77.2071 30.2089C77.1532 30.3542 77.0742 30.486 76.9746 30.5967L71.9043 36.2326C71.7006 36.4589 71.4258 36.5855 71.1395 36.5848Z" fill="#6C63FF"/>
</g>
<defs>
<clipPath id="clip0_17_315">
<rect width="107" height="78" fill="white"/>
</clipPath>
</defs>
</svg>
