<svg width="46" height="45" viewBox="0 0 46 45" fill="none" xmlns="http://www.w3.org/2000/svg">
<g clip-path="url(#clip0_3_107)">
<path d="M42.4189 7.75864H4.15923C2.29788 7.75864 0.789062 9.26745 0.789062 11.1288V33.8713C0.789062 35.7326 2.29788 37.2415 4.15923 37.2415H42.4189C44.2802 37.2415 45.7891 35.7326 45.7891 33.8713V11.1288C45.7891 9.26745 44.2802 7.75864 42.4189 7.75864Z" fill="#F5F5F5"/>
<path d="M0.974365 10.0266H45.6036C45.1469 8.70671 43.8939 7.75864 42.4188 7.75864H4.15917C2.68401 7.75864 1.43113 8.70671 0.974365 10.0266Z" fill="#FF4B55"/>
<path d="M45.7891 16.8302H0.789062V19.098H45.7891V16.8302Z" fill="#FF4B55"/>
<path d="M45.7891 12.2941H0.789062V14.562H45.7891V12.2941Z" fill="#FF4B55"/>
<path d="M0.789062 22.8581C0.789062 23.2865 1.13649 23.634 1.56496 23.634H45.7891V21.366H0.789062V22.8581Z" fill="#FF4B55"/>
<path d="M45.7891 30.4383H0.789062V32.7062H45.7891V30.4383Z" fill="#FF4B55"/>
<path d="M45.6036 34.9734H0.974365C1.43113 36.2933 2.6841 37.2414 4.15917 37.2414H42.4188C43.894 37.2414 45.1469 36.2933 45.6036 34.9734Z" fill="#FF4B55"/>
<path d="M45.7891 25.9023H0.789062V28.1701H45.7891V25.9023Z" fill="#FF4B55"/>
<path d="M1.56496 23.634H20.9615C21.39 23.634 21.7374 23.2865 21.7374 22.8581V8.53444C21.7374 8.10589 21.39 7.75854 20.9615 7.75854H4.15923C2.29788 7.75863 0.789062 9.26745 0.789062 11.1288V22.8581C0.789062 23.2866 1.13649 23.634 1.56496 23.634Z" fill="#41479B"/>
<path d="M2.9678 9.53951L3.13953 10.0545L3.68243 10.0587C3.75275 10.0593 3.78184 10.1489 3.72532 10.1907L3.2886 10.5132L3.45242 11.0307C3.47369 11.0977 3.39732 11.1533 3.3401 11.1123L2.89845 10.7967L2.4568 11.1124C2.39958 11.1534 2.32338 11.0978 2.34447 11.0308L2.5083 10.5132L2.07157 10.1908C2.01506 10.1489 2.04415 10.0593 2.11447 10.0588L2.65737 10.0546L2.8291 9.5396C2.85125 9.4728 2.94547 9.4728 2.9678 9.53951Z" fill="#F5F5F5"/>
<path d="M2.9678 12.2336L3.13953 12.7486L3.68243 12.7528C3.75275 12.7534 3.78184 12.8429 3.72532 12.8848L3.2886 13.2073L3.45242 13.7249C3.47369 13.7919 3.39732 13.8474 3.3401 13.8065L2.89845 13.4909L2.4568 13.8066C2.39958 13.8474 2.32338 13.792 2.34447 13.725L2.5083 13.2074L2.07157 12.8849C2.01506 12.843 2.04415 12.7535 2.11447 12.7528L2.65737 12.7487L2.8291 12.2337C2.85125 12.167 2.94547 12.167 2.9678 12.2336Z" fill="#F5F5F5"/>
<path d="M2.9678 14.9279L3.13953 15.4429L3.68243 15.447C3.75275 15.4477 3.78184 15.5372 3.72532 15.5791L3.2886 15.9016L3.45242 16.4192C3.47369 16.4862 3.39732 16.5417 3.3401 16.5008L2.89845 16.1851L2.4568 16.5009C2.39958 16.5417 2.32338 16.4864 2.34447 16.4193L2.5083 15.9017L2.07157 15.5791C2.01506 15.5373 2.04415 15.4477 2.11447 15.4471L2.65737 15.443L2.8291 14.928C2.85125 14.8612 2.94547 14.8612 2.9678 14.9279Z" fill="#F5F5F5"/>
<path d="M2.9678 17.6221L3.13953 18.1371L3.68243 18.1412C3.75275 18.1419 3.78184 18.2315 3.72532 18.2733L3.2886 18.5958L3.45242 19.1134C3.47369 19.1804 3.39732 19.2359 3.3401 19.195L2.89845 18.8793L2.4568 19.1951C2.39958 19.2359 2.32338 19.1805 2.34447 19.1135L2.5083 18.5959L2.07157 18.2733C2.01506 18.2317 2.04415 18.1419 2.11447 18.1413L2.65737 18.1372L2.8291 17.6222C2.85125 17.5554 2.94547 17.5554 2.9678 17.6221Z" fill="#F5F5F5"/>
<path d="M2.9678 20.3163L3.13953 20.8313L3.68243 20.8354C3.75275 20.8361 3.78184 20.9256 3.72532 20.9675L3.2886 21.29L3.45242 21.8076C3.47369 21.8746 3.39732 21.9301 3.3401 21.8892L2.89845 21.5735L2.4568 21.8893C2.39958 21.9301 2.32338 21.8747 2.34447 21.8077L2.5083 21.2901L2.07157 20.9675C2.01506 20.9257 2.04415 20.8361 2.11447 20.8355L2.65737 20.8314L2.8291 20.3164C2.85125 20.2497 2.94547 20.2497 2.9678 20.3163Z" fill="#F5F5F5"/>
<path d="M5.05898 10.8603L5.23072 11.3753L5.77362 11.3795C5.84393 11.3801 5.87302 11.4697 5.81651 11.5115L5.37978 11.834L5.54361 12.3516C5.56488 12.4186 5.4885 12.4741 5.43129 12.4332L4.98964 12.1175L4.54799 12.4332C4.49077 12.4741 4.41457 12.4186 4.43566 12.3516L4.59949 11.834L4.16276 11.5115C4.10625 11.4696 4.13534 11.3801 4.20565 11.3795L4.74855 11.3753L4.92029 10.8603C4.94244 10.7937 5.03675 10.7937 5.05898 10.8603Z" fill="#F5F5F5"/>
<path d="M5.05898 13.5546L5.23072 14.0696L5.77362 14.0738C5.84393 14.0744 5.87302 14.164 5.81651 14.2058L5.37978 14.5283L5.54361 15.0459C5.56488 15.1129 5.4885 15.1684 5.43129 15.1275L4.98964 14.8118L4.54799 15.1275C4.49077 15.1683 4.41457 15.113 4.43566 15.0459L4.59949 14.5283L4.16276 14.2058C4.10625 14.1641 4.13534 14.0744 4.20565 14.0738L4.74855 14.0696L4.92029 13.5546C4.94244 13.4879 5.03675 13.4879 5.05898 13.5546Z" fill="#F5F5F5"/>
<path d="M5.05898 16.2488L5.23072 16.7638L5.77362 16.7679C5.84393 16.7686 5.87302 16.8581 5.81651 16.9L5.37978 17.2225L5.54361 17.7401C5.56488 17.8071 5.4885 17.8626 5.43129 17.8217L4.98964 17.506L4.54799 17.8217C4.49077 17.8625 4.41457 17.8071 4.43566 17.7401L4.59949 17.2225L4.16276 16.9C4.10625 16.8581 4.13534 16.7686 4.20565 16.7679L4.74855 16.7638L4.92029 16.2488C4.94244 16.1821 5.03675 16.1821 5.05898 16.2488Z" fill="#F5F5F5"/>
<path d="M5.05898 18.943L5.23072 19.458L5.77362 19.4621C5.84393 19.4628 5.87302 19.5523 5.81651 19.5942L5.37978 19.9167L5.54361 20.4343C5.56488 20.5013 5.4885 20.5568 5.43129 20.5159L4.98964 20.2002L4.54799 20.5159C4.49077 20.5568 4.41457 20.5013 4.43566 20.4343L4.59949 19.9167L4.16276 19.5942C4.10625 19.5523 4.13534 19.4628 4.20565 19.4621L4.74855 19.458L4.92029 18.943C4.94244 18.8764 5.03675 18.8764 5.05898 18.943Z" fill="#F5F5F5"/>
<path d="M7.15017 9.53939L7.32191 10.0544L7.86481 10.0586C7.93512 10.0592 7.96421 10.1488 7.9077 10.1906L7.47097 10.513L7.6348 11.0306C7.65607 11.0976 7.57969 11.1531 7.52247 11.1122L7.08082 10.7965L6.63917 11.1122C6.58196 11.1531 6.50575 11.0976 6.52685 11.0306L6.69068 10.513L6.25395 10.1906C6.19743 10.1487 6.22653 10.0591 6.29684 10.0586L6.83974 10.0544L7.01148 9.53939C7.03362 9.47268 7.12793 9.47268 7.15017 9.53939Z" fill="#F5F5F5"/>
<path d="M7.15017 12.2336L7.32191 12.7486L7.86481 12.7528C7.93512 12.7534 7.96421 12.8429 7.9077 12.8848L7.47097 13.2073L7.6348 13.7249C7.65607 13.7919 7.57969 13.8474 7.52247 13.8065L7.08082 13.4908L6.63917 13.8065C6.58196 13.8474 6.50575 13.7919 6.52685 13.7249L6.69068 13.2073L6.25395 12.8848C6.19743 12.8429 6.22653 12.7534 6.29684 12.7528L6.83974 12.7486L7.01148 12.2336C7.03362 12.167 7.12793 12.167 7.15017 12.2336Z" fill="#F5F5F5"/>
<path d="M7.15017 14.9279L7.32191 15.4429L7.86481 15.447C7.93512 15.4477 7.96421 15.5372 7.9077 15.5791L7.47097 15.9016L7.6348 16.4192C7.65607 16.4862 7.57969 16.5417 7.52247 16.5008L7.08082 16.1851L6.63917 16.5008C6.58196 16.5416 6.50575 16.4863 6.52685 16.4192L6.69068 15.9016L6.25395 15.5791C6.19743 15.5372 6.22653 15.4477 6.29684 15.447L6.83974 15.4429L7.01148 14.9279C7.03362 14.8612 7.12793 14.8612 7.15017 14.9279Z" fill="#F5F5F5"/>
<path d="M7.15017 17.6221L7.32191 18.1371L7.86481 18.1412C7.93512 18.1419 7.96421 18.2315 7.9077 18.2733L7.47097 18.5958L7.6348 19.1134C7.65607 19.1804 7.57969 19.2359 7.52247 19.195L7.08082 18.8793L6.63917 19.195C6.58196 19.2358 6.50575 19.1804 6.52685 19.1134L6.69068 18.5958L6.25395 18.2733C6.19743 18.2316 6.22653 18.1419 6.29684 18.1412L6.83974 18.1371L7.01148 17.6221C7.03362 17.5554 7.12793 17.5554 7.15017 17.6221Z" fill="#F5F5F5"/>
<path d="M7.15017 20.3163L7.32191 20.8313L7.86481 20.8354C7.93512 20.8361 7.96421 20.9256 7.9077 20.9675L7.47097 21.29L7.6348 21.8076C7.65607 21.8746 7.57969 21.9301 7.52247 21.8892L7.08082 21.5735L6.63917 21.8892C6.58196 21.93 6.50575 21.8746 6.52685 21.8076L6.69068 21.29L6.25395 20.9675C6.19743 20.9256 6.22653 20.8361 6.29684 20.8354L6.83974 20.8313L7.01148 20.3163C7.03362 20.2497 7.12793 20.2497 7.15017 20.3163Z" fill="#F5F5F5"/>
<path d="M9.24148 10.8603L9.41322 11.3753L9.95612 11.3795C10.0264 11.3801 10.0555 11.4697 9.99901 11.5115L9.56228 11.834L9.72611 12.3516C9.74738 12.4186 9.671 12.4741 9.61378 12.4332L9.17213 12.1175L8.73048 12.4332C8.67326 12.4741 8.59706 12.4186 8.61816 12.3516L8.78198 11.834L8.34526 11.5115C8.28874 11.4696 8.31783 11.3801 8.38815 11.3795L8.93105 11.3753L9.10279 10.8603C9.12485 10.7937 9.21924 10.7937 9.24148 10.8603Z" fill="#F5F5F5"/>
<path d="M9.24148 13.5546L9.41322 14.0696L9.95612 14.0738C10.0264 14.0744 10.0555 14.164 9.99901 14.2058L9.56228 14.5283L9.72611 15.0459C9.74738 15.1129 9.671 15.1684 9.61378 15.1275L9.17213 14.8118L8.73048 15.1275C8.67326 15.1683 8.59706 15.113 8.61816 15.0459L8.78198 14.5283L8.34526 14.2058C8.28874 14.1641 8.31783 14.0744 8.38815 14.0738L8.93105 14.0696L9.10279 13.5546C9.12485 13.4879 9.21924 13.4879 9.24148 13.5546Z" fill="#F5F5F5"/>
<path d="M9.24148 16.2488L9.41322 16.7638L9.95612 16.7679C10.0264 16.7686 10.0555 16.8581 9.99901 16.9L9.56228 17.2225L9.72611 17.7401C9.74738 17.8071 9.671 17.8626 9.61378 17.8217L9.17213 17.506L8.73048 17.8217C8.67326 17.8625 8.59706 17.8071 8.61816 17.7401L8.78198 17.2225L8.34526 16.9C8.28874 16.8581 8.31783 16.7686 8.38815 16.7679L8.93105 16.7638L9.10279 16.2488C9.12485 16.1821 9.21924 16.1821 9.24148 16.2488Z" fill="#F5F5F5"/>
<path d="M9.24148 18.943L9.41322 19.458L9.95612 19.4621C10.0264 19.4628 10.0555 19.5523 9.99901 19.5942L9.56228 19.9167L9.72611 20.4343C9.74738 20.5013 9.671 20.5568 9.61378 20.5159L9.17213 20.2002L8.73048 20.5159C8.67326 20.5568 8.59706 20.5013 8.61816 20.4343L8.78198 19.9167L8.34526 19.5942C8.28874 19.5523 8.31783 19.4628 8.38815 19.4621L8.93105 19.458L9.10279 18.943C9.12485 18.8764 9.21924 18.8764 9.24148 18.943Z" fill="#F5F5F5"/>
<path d="M11.3326 9.53939L11.5044 10.0544L12.0473 10.0586C12.1176 10.0592 12.1467 10.1488 12.0902 10.1906L11.6534 10.513L11.8173 11.0306C11.8385 11.0976 11.7622 11.1531 11.7049 11.1122L11.2632 10.7966L10.8215 11.1123C10.7643 11.1532 10.6881 11.0977 10.7092 11.0307L10.873 10.5131L10.4363 10.1907C10.3798 10.1488 10.4089 10.0592 10.4792 10.0586L11.0221 10.0545L11.1939 9.53947C11.2161 9.47268 11.3104 9.47268 11.3326 9.53939Z" fill="#F5F5F5"/>
<path d="M11.3326 12.2336L11.5044 12.7486L12.0473 12.7528C12.1176 12.7534 12.1467 12.8429 12.0902 12.8848L11.6534 13.2073L11.8173 13.7249C11.8385 13.7919 11.7622 13.8474 11.7049 13.8065L11.2632 13.4908L10.8215 13.8065C10.7643 13.8474 10.6881 13.7919 10.7092 13.7249L10.873 13.2073L10.4363 12.8848C10.3798 12.8429 10.4089 12.7534 10.4792 12.7528L11.0221 12.7486L11.1939 12.2336C11.2161 12.167 11.3104 12.167 11.3326 12.2336Z" fill="#F5F5F5"/>
<path d="M11.3326 14.9279L11.5044 15.4429L12.0473 15.447C12.1176 15.4477 12.1467 15.5372 12.0902 15.5791L11.6534 15.9016L11.8173 16.4192C11.8385 16.4862 11.7622 16.5417 11.7049 16.5008L11.2632 16.185L10.8215 16.5007C10.7643 16.5415 10.6881 16.4861 10.7092 16.4191L10.873 15.9015L10.4363 15.579C10.3798 15.5371 10.4089 15.4476 10.4792 15.447L11.0221 15.4428L11.1939 14.9278C11.2161 14.8612 11.3104 14.8612 11.3326 14.9279Z" fill="#F5F5F5"/>
<path d="M11.3326 17.6221L11.5044 18.1371L12.0473 18.1412C12.1176 18.1419 12.1467 18.2315 12.0902 18.2733L11.6534 18.5958L11.8173 19.1134C11.8385 19.1804 11.7622 19.2359 11.7049 19.195L11.2632 18.8793L10.8215 19.195C10.7643 19.2358 10.6881 19.1804 10.7092 19.1134L10.873 18.5958L10.4363 18.2733C10.3798 18.2316 10.4089 18.1419 10.4792 18.1412L11.0221 18.1371L11.1939 17.6221C11.2161 17.5554 11.3104 17.5554 11.3326 17.6221Z" fill="#F5F5F5"/>
<path d="M11.3326 20.3163L11.5044 20.8313L12.0473 20.8354C12.1176 20.8361 12.1467 20.9256 12.0902 20.9675L11.6534 21.29L11.8173 21.8076C11.8385 21.8746 11.7622 21.9301 11.7049 21.8892L11.2632 21.5735L10.8215 21.8892C10.7643 21.93 10.6881 21.8746 10.7092 21.8076L10.873 21.29L10.4363 20.9675C10.3798 20.9256 10.4089 20.8361 10.4792 20.8354L11.0221 20.8313L11.1939 20.3163C11.2161 20.2497 11.3104 20.2497 11.3326 20.3163Z" fill="#F5F5F5"/>
<path d="M13.4239 10.8603L13.5956 11.3753L14.1385 11.3795C14.2088 11.3801 14.2379 11.4697 14.1814 11.5115L13.7447 11.834L13.9085 12.3516C13.9297 12.4186 13.8534 12.4741 13.7962 12.4332L13.3545 12.1175L12.9129 12.4332C12.8556 12.4741 12.7794 12.4186 12.8005 12.3516L12.9644 11.834L12.5276 11.5115C12.4711 11.4696 12.5002 11.3801 12.5705 11.3795L13.1134 11.3753L13.2852 10.8603C13.3074 10.7937 13.4016 10.7937 13.4239 10.8603Z" fill="#F5F5F5"/>
<path d="M13.4239 13.5546L13.5956 14.0696L14.1385 14.0738C14.2088 14.0744 14.2379 14.164 14.1814 14.2058L13.7447 14.5283L13.9085 15.0459C13.9297 15.1129 13.8534 15.1684 13.7962 15.1275L13.3545 14.8118L12.9129 15.1275C12.8556 15.1683 12.7794 15.113 12.8005 15.0459L12.9644 14.5283L12.5276 14.2058C12.4711 14.1641 12.5002 14.0744 12.5705 14.0738L13.1134 14.0696L13.2852 13.5546C13.3074 13.4879 13.4016 13.4879 13.4239 13.5546Z" fill="#F5F5F5"/>
<path d="M13.4239 16.2488L13.5956 16.7638L14.1385 16.7679C14.2088 16.7686 14.2379 16.8581 14.1814 16.9L13.7447 17.2225L13.9085 17.7401C13.9297 17.8071 13.8534 17.8626 13.7962 17.8217L13.3545 17.506L12.9129 17.8217C12.8556 17.8625 12.7794 17.8071 12.8005 17.7401L12.9644 17.2225L12.5276 16.9C12.4711 16.8581 12.5002 16.7686 12.5705 16.7679L13.1134 16.7638L13.2852 16.2488C13.3074 16.1821 13.4016 16.1821 13.4239 16.2488Z" fill="#F5F5F5"/>
<path d="M13.4239 18.943L13.5956 19.458L14.1385 19.4621C14.2088 19.4628 14.2379 19.5523 14.1814 19.5942L13.7447 19.9167L13.9085 20.4343C13.9297 20.5013 13.8534 20.5568 13.7962 20.5159L13.3545 20.2002L12.9129 20.5159C12.8556 20.5568 12.7794 20.5013 12.8005 20.4343L12.9644 19.9167L12.5276 19.5942C12.4711 19.5523 12.5002 19.4628 12.5705 19.4621L13.1134 19.458L13.2852 18.943C13.3074 18.8764 13.4016 18.8764 13.4239 18.943Z" fill="#F5F5F5"/>
<path d="M15.515 9.53939L15.6868 10.0544L16.2297 10.0586C16.3 10.0592 16.3291 10.1488 16.2726 10.1906L15.8358 10.513L15.9997 11.0306C16.0209 11.0976 15.9446 11.1531 15.8873 11.1122L15.4457 10.7965L15.004 11.1122C14.9468 11.1531 14.8706 11.0976 14.8917 11.0306L15.0555 10.513L14.6188 10.1906C14.5623 10.1487 14.5914 10.0591 14.6617 10.0586L15.2046 10.0544L15.3763 9.53939C15.3984 9.47268 15.4928 9.47268 15.515 9.53939Z" fill="#F5F5F5"/>
<path d="M15.515 12.2336L15.6868 12.7486L16.2297 12.7528C16.3 12.7534 16.3291 12.8429 16.2726 12.8848L15.8358 13.2073L15.9997 13.7249C16.0209 13.7919 15.9446 13.8474 15.8873 13.8065L15.4457 13.4908L15.004 13.8065C14.9468 13.8474 14.8706 13.7919 14.8917 13.7249L15.0555 13.2073L14.6188 12.8848C14.5623 12.8429 14.5914 12.7534 14.6617 12.7528L15.2046 12.7486L15.3763 12.2336C15.3984 12.167 15.4928 12.167 15.515 12.2336Z" fill="#F5F5F5"/>
<path d="M15.515 14.9279L15.6868 15.4429L16.2297 15.447C16.3 15.4477 16.3291 15.5372 16.2726 15.5791L15.8358 15.9016L15.9997 16.4192C16.0209 16.4862 15.9446 16.5417 15.8873 16.5008L15.4457 16.1851L15.004 16.5008C14.9468 16.5416 14.8706 16.4863 14.8917 16.4192L15.0555 15.9016L14.6188 15.5791C14.5623 15.5372 14.5914 15.4477 14.6617 15.447L15.2046 15.4429L15.3763 14.9279C15.3984 14.8612 15.4928 14.8612 15.515 14.9279Z" fill="#F5F5F5"/>
<path d="M15.515 17.6221L15.6868 18.1371L16.2297 18.1412C16.3 18.1419 16.3291 18.2315 16.2726 18.2733L15.8358 18.5958L15.9997 19.1134C16.0209 19.1804 15.9446 19.2359 15.8873 19.195L15.4457 18.8793L15.004 19.195C14.9468 19.2358 14.8706 19.1804 14.8917 19.1134L15.0555 18.5958L14.6188 18.2733C14.5623 18.2316 14.5914 18.1419 14.6617 18.1412L15.2046 18.1371L15.3763 17.6221C15.3984 17.5554 15.4928 17.5554 15.515 17.6221Z" fill="#F5F5F5"/>
<path d="M15.515 20.3163L15.6868 20.8313L16.2297 20.8354C16.3 20.8361 16.3291 20.9256 16.2726 20.9675L15.8358 21.29L15.9997 21.8076C16.0209 21.8746 15.9446 21.9301 15.8873 21.8892L15.4457 21.5735L15.004 21.8892C14.9468 21.93 14.8706 21.8746 14.8917 21.8076L15.0555 21.29L14.6188 20.9675C14.5623 20.9256 14.5914 20.8361 14.6617 20.8354L15.2046 20.8313L15.3763 20.3163C15.3984 20.2497 15.4928 20.2497 15.515 20.3163Z" fill="#F5F5F5"/>
<path d="M17.6062 10.8603L17.778 11.3753L18.3209 11.3795C18.3912 11.3801 18.4203 11.4697 18.3638 11.5115L17.927 11.834L18.0909 12.3516C18.1121 12.4186 18.0357 12.4741 17.9785 12.4332L17.5369 12.1175L17.0952 12.4332C17.038 12.4741 16.9618 12.4186 16.9829 12.3516L17.1467 11.834L16.71 11.5115C16.6535 11.4696 16.6826 11.3801 16.7529 11.3795L17.2958 11.3753L17.4675 10.8603C17.4897 10.7937 17.584 10.7937 17.6062 10.8603Z" fill="#F5F5F5"/>
<path d="M17.6062 13.5546L17.778 14.0696L18.3209 14.0738C18.3912 14.0744 18.4203 14.164 18.3638 14.2058L17.927 14.5283L18.0909 15.0459C18.1121 15.1129 18.0357 15.1684 17.9785 15.1275L17.5369 14.8118L17.0952 15.1275C17.038 15.1683 16.9618 15.113 16.9829 15.0459L17.1467 14.5283L16.71 14.2058C16.6535 14.1641 16.6826 14.0744 16.7529 14.0738L17.2958 14.0696L17.4675 13.5546C17.4897 13.4879 17.584 13.4879 17.6062 13.5546Z" fill="#F5F5F5"/>
<path d="M17.6062 16.2488L17.778 16.7638L18.3209 16.7679C18.3912 16.7686 18.4203 16.8581 18.3638 16.9L17.927 17.2225L18.0909 17.7401C18.1121 17.8071 18.0357 17.8626 17.9785 17.8217L17.5369 17.506L17.0952 17.8217C17.038 17.8625 16.9618 17.8071 16.9829 17.7401L17.1467 17.2225L16.71 16.9C16.6535 16.8581 16.6826 16.7686 16.7529 16.7679L17.2958 16.7638L17.4675 16.2488C17.4897 16.1821 17.584 16.1821 17.6062 16.2488Z" fill="#F5F5F5"/>
<path d="M17.6062 18.943L17.778 19.458L18.3209 19.4621C18.3912 19.4628 18.4203 19.5523 18.3638 19.5942L17.927 19.9167L18.0909 20.4343C18.1121 20.5013 18.0357 20.5568 17.9785 20.5159L17.5369 20.2002L17.0952 20.5159C17.038 20.5568 16.9618 20.5013 16.9829 20.4343L17.1467 19.9167L16.71 19.5942C16.6535 19.5523 16.6826 19.4628 16.7529 19.4621L17.2958 19.458L17.4675 18.943C17.4897 18.8764 17.584 18.8764 17.6062 18.943Z" fill="#F5F5F5"/>
<path d="M19.6975 9.53939L19.8693 10.0544L20.4122 10.0586C20.4825 10.0592 20.5116 10.1488 20.4551 10.1906L20.0183 10.513L20.1822 11.0306C20.2034 11.0976 20.1271 11.1531 20.0698 11.1122L19.6282 10.7965L19.1865 11.1122C19.1293 11.1531 19.0531 11.0976 19.0742 11.0306L19.238 10.513L18.8013 10.1906C18.7448 10.1487 18.7739 10.0591 18.8442 10.0586L19.3871 10.0544L19.5588 9.53939C19.581 9.47268 19.6752 9.47268 19.6975 9.53939Z" fill="#F5F5F5"/>
<path d="M19.6975 12.2336L19.8693 12.7486L20.4122 12.7528C20.4825 12.7534 20.5116 12.8429 20.4551 12.8848L20.0183 13.2073L20.1822 13.7249C20.2034 13.7919 20.1271 13.8474 20.0698 13.8065L19.6282 13.4908L19.1865 13.8065C19.1293 13.8474 19.0531 13.7919 19.0742 13.7249L19.238 13.2073L18.8013 12.8848C18.7448 12.8429 18.7739 12.7534 18.8442 12.7528L19.3871 12.7486L19.5588 12.2336C19.581 12.167 19.6752 12.167 19.6975 12.2336Z" fill="#F5F5F5"/>
<path d="M19.6975 14.9279L19.8693 15.4429L20.4122 15.447C20.4825 15.4477 20.5116 15.5372 20.4551 15.5791L20.0183 15.9016L20.1822 16.4192C20.2034 16.4862 20.1271 16.5417 20.0698 16.5008L19.6282 16.1851L19.1865 16.5008C19.1293 16.5416 19.0531 16.4863 19.0742 16.4192L19.238 15.9016L18.8013 15.5791C18.7448 15.5372 18.7739 15.4477 18.8442 15.447L19.3871 15.4429L19.5588 14.9279C19.581 14.8612 19.6752 14.8612 19.6975 14.9279Z" fill="#F5F5F5"/>
<path d="M19.6975 17.6221L19.8693 18.1371L20.4122 18.1412C20.4825 18.1419 20.5116 18.2315 20.4551 18.2733L20.0183 18.5958L20.1822 19.1134C20.2034 19.1804 20.1271 19.2359 20.0698 19.195L19.6282 18.8793L19.1865 19.195C19.1293 19.2358 19.0531 19.1804 19.0742 19.1134L19.238 18.5958L18.8013 18.2733C18.7448 18.2316 18.7739 18.1419 18.8442 18.1412L19.3871 18.1371L19.5588 17.6221C19.581 17.5554 19.6752 17.5554 19.6975 17.6221Z" fill="#F5F5F5"/>
<path d="M19.6975 20.3163L19.8693 20.8313L20.4122 20.8354C20.4825 20.8361 20.5116 20.9256 20.4551 20.9675L20.0183 21.29L20.1822 21.8076C20.2034 21.8746 20.1271 21.9301 20.0698 21.8892L19.6282 21.5735L19.1865 21.8892C19.1293 21.93 19.0531 21.8746 19.0742 21.8076L19.238 21.29L18.8013 20.9675C18.7448 20.9256 18.7739 20.8361 18.8442 20.8354L19.3871 20.8313L19.5588 20.3163C19.581 20.2497 19.6752 20.2497 19.6975 20.3163Z" fill="#F5F5F5"/>
</g>
<defs>
<clipPath id="clip0_3_107">
<rect width="45" height="45" fill="white" transform="translate(0.789062)"/>
</clipPath>
</defs>
</svg>
