<svg width="89" height="89" viewBox="0 0 89 89" fill="none" xmlns="http://www.w3.org/2000/svg">
<g filter="url(#filter0_d_1068_738)">
<circle cx="42.5" cy="43.3929" r="40.5" fill="#00C943"/>
</g>
<path d="M49.8918 43.9097C49.8315 43.8806 47.5761 42.7616 47.1753 42.6163C47.0117 42.5571 46.8364 42.4993 46.65 42.4993C46.3454 42.4993 46.0896 42.6522 45.8903 42.9526C45.665 43.29 44.983 44.0932 44.7723 44.3331C44.7447 44.3648 44.7072 44.4026 44.6847 44.4026C44.6645 44.4026 44.3154 44.2578 44.2098 44.2116C41.7903 43.1528 39.9539 40.6065 39.7021 40.1772C39.6661 40.1154 39.6646 40.0874 39.6643 40.0874C39.6731 40.0547 39.7545 39.9726 39.7965 39.9301C39.9193 39.8077 40.0524 39.6463 40.1812 39.4901C40.2422 39.4162 40.3032 39.3421 40.3632 39.2723C40.55 39.0533 40.6332 38.8833 40.7296 38.6863L40.7802 38.584C41.0156 38.1128 40.8145 37.7151 40.7495 37.5866C40.6962 37.4792 39.7439 35.1636 39.6426 34.9203C39.3991 34.3333 39.0774 34.0599 38.6303 34.0599C38.5888 34.0599 38.6303 34.0599 38.4564 34.0673C38.2445 34.0763 37.0909 34.2293 36.5808 34.5533C36.0399 34.8968 35.1249 35.992 35.1249 37.918C35.1249 39.6514 36.2167 41.288 36.6855 41.9105C36.6972 41.9262 36.7185 41.958 36.7496 42.0038C38.5448 44.6452 40.7829 46.6027 43.0516 47.5158C45.2358 48.3948 46.2701 48.4964 46.8581 48.4964H46.8582C47.1053 48.4964 47.3031 48.4769 47.4776 48.4596L47.5883 48.449C48.3428 48.3816 50.001 47.5159 50.3781 46.46C50.6752 45.6282 50.7536 44.7195 50.5559 44.3897C50.4205 44.1654 50.1872 44.0526 49.8918 43.9097Z" fill="white"/>
<path d="M42.7431 26C34.3643 26 27.5477 32.816 27.5477 41.194C27.5477 43.9037 28.2675 46.5562 29.631 48.8776L27.0211 56.6338C26.9725 56.7784 27.0087 56.9383 27.1149 57.0472C27.1915 57.1261 27.2955 57.1686 27.4016 57.1686C27.4423 57.1686 27.4833 57.1624 27.5233 57.1495L35.5509 54.5795C37.7476 55.762 40.2304 56.3862 42.7432 56.3862C51.1211 56.3863 57.9371 49.571 57.9371 41.194C57.9371 32.816 51.1211 26 42.7431 26ZM42.7431 53.2213C40.3787 53.2213 38.0886 52.5334 36.1201 51.2321C36.0539 51.1882 35.9771 51.1658 35.8997 51.1658C35.8588 51.1658 35.8179 51.172 35.778 51.1848L31.7567 52.4726L33.0548 48.6141C33.0968 48.4892 33.0758 48.3515 32.9985 48.245C31.4994 46.1814 30.707 43.7433 30.707 41.194C30.707 34.5612 36.1063 29.165 42.743 29.165C49.3788 29.165 54.7775 34.5612 54.7775 41.194C54.7776 47.8259 49.379 53.2213 42.7431 53.2213Z" fill="white"/>
<circle cx="66.6071" cy="10.6073" r="10.6071" fill="#FF1515"/>
<path d="M68.7669 4.60075V15.8215H66.3946V6.85258H66.3288L63.7592 8.46338V6.35948L66.537 4.60075H68.7669Z" fill="white"/>
<defs>
<filter id="filter0_d_1068_738" x="0.167857" y="0.0965155" width="88.5214" height="88.5214" filterUnits="userSpaceOnUse" color-interpolation-filters="sRGB">
<feFlood flood-opacity="0" result="BackgroundImageFix"/>
<feColorMatrix in="SourceAlpha" type="matrix" values="0 0 0 0 0 0 0 0 0 0 0 0 0 0 0 0 0 0 127 0" result="hardAlpha"/>
<feOffset dx="1.92857" dy="0.964286"/>
<feGaussianBlur stdDeviation="1.88036"/>
<feComposite in2="hardAlpha" operator="out"/>
<feColorMatrix type="matrix" values="0 0 0 0 0 0 0 0 0 0 0 0 0 0 0 0 0 0 0.25 0"/>
<feBlend mode="normal" in2="BackgroundImageFix" result="effect1_dropShadow_1068_738"/>
<feBlend mode="normal" in="SourceGraphic" in2="effect1_dropShadow_1068_738" result="shape"/>
</filter>
</defs>
</svg>
